<?xml version="1.0" encoding="utf-8"?>
<!-- Generator: Adobe Illustrator 19.0.0, SVG Export Plug-In . SVG Version: 6.00 Build 0)  -->
<svg version="1.1" id="Capa_1" xmlns="http://www.w3.org/2000/svg" xmlns:xlink="http://www.w3.org/1999/xlink" x="0px" y="0px"
	 viewBox="0 0 377 258" style="enable-background:new 0 0 377 258;" xml:space="preserve">
<style type="text/css">
	.st0{fill:#808080;}
	.st1{stroke:#000000;stroke-miterlimit:10;}
	.st2{fill:#FFFFFF;stroke:#000000;stroke-miterlimit:10;}
	.st3{fill:#1A1A1A;stroke:#000000;stroke-miterlimit:10;}
	.st4{fill:#FFFFFF;}
</style>
<g id="XMLID_2662_">
	<g id="XMLID_2665_">
		<path id="XMLID_2668_" class="st0" d="M161.3,130.5c0.2-0.2,0.4-0.3,0.7-0.3c2.6-0.1,5.2-0.2,7.9-0.3c2.4-0.1,4.7-0.2,7.1-0.2h0.1
			c-0.3-0.1-0.5-0.2-0.8-0.3c-1.1-0.4-2.1-0.8-3.2-1.1c-0.2-0.1-0.5-0.1-0.8-0.1c-1,0-2,0-3,0c-0.9,0-1.8-0.3-2.6-0.7
			c-0.6-0.3-1.2-0.7-1.9-1c-0.7-0.3-1.5-0.5-2.3-0.2c-0.2,0.1-0.5,0.1-0.6-0.2c-0.1-0.2-0.1-0.5,0.1-0.6c0.1-0.2,0.3-0.3,0.5-0.4
			c1.1-0.5,2.3-0.4,3.4,0.2c0.5,0.2,1.1,0.5,1.6,0.8c0.9,0.3,1.9,0.4,2.8,0.3c0.7,0,1.4-0.1,2.1-0.1c1,0,2,0.2,2.9,0.6
			c0.8,0.3,1.5,0.6,2.3,0.6c0,0,0.1,0,0.2,0c-0.1,0-0.2-0.1-0.2-0.1c-4.3-1.9-8.7-3.8-13-5.8c-0.3-0.1-0.5-0.2-0.7-0.4
			c-0.3-0.2-0.5-0.5-0.4-0.8s0.5-0.4,0.8-0.3c0.9,0.3,1.7,0.6,2.6,0.9c3.8,1.4,7.6,2.8,11.4,4.1c0.1,0,0.1,0.1,0.2,0
			c-0.1-0.1-0.3-0.2-0.4-0.4c-0.4-0.4-0.9-0.8-1.3-1.2c-1-1-2.2-1.7-3.6-2.2c-0.6-0.2-1.1-0.4-1.7-0.7c-0.9-0.4-1.5-1.2-2.1-2
			c-0.3-0.4-0.7-0.8-1.1-1.2c-0.5-0.5-1.1-0.8-1.8-0.8c-0.1,0-0.1,0-0.2,0c-0.3-0.1-0.4-0.4-0.3-0.7c0.2-0.3,0.5-0.4,0.8-0.4
			c1.1,0,2.1,0.4,2.9,1.1c0.2,0.2,0.4,0.4,0.5,0.6c0.9,1.1,2,1.8,3.3,2.3c0.4,0.1,0.8,0.3,1.2,0.4c1.3,0.3,2.3,1,3.2,1.9
			c0.5,0.5,1.1,1,1.8,1.3c0.1,0,0.1,0.1,0.2,0.1c-0.1-0.1-0.2-0.2-0.3-0.3c-3.1-3.2-6.2-6.4-9.3-9.7c-0.3-0.3-0.6-0.7-0.9-1
			s-0.3-0.6-0.1-0.8c0.2-0.3,0.6-0.3,0.9,0c1.4,1.2,2.8,2.5,4.2,3.7c2.2,2,4.5,4.1,6.7,6.1c0.1,0.1,0.1,0.1,0.2,0.2
			c-0.2-0.4-0.3-0.7-0.4-0.9c-0.3-0.7-0.7-1.5-1-2.2s-0.9-1.3-1.4-1.8c-0.4-0.3-0.7-0.7-1.1-1c-1-0.9-1.6-2-1.9-3.3
			c-0.1-0.6-0.3-1.1-0.6-1.7c-0.2-0.6-0.7-1-1.2-1.3c-0.3-0.2-0.4-0.4-0.4-0.6c0.1-0.2,0.3-0.4,0.6-0.4c0.3,0,0.6,0.1,0.9,0.2
			c1,0.5,1.6,1.3,2,2.4c0.1,0.2,0.2,0.5,0.2,0.7c0.3,1.2,1.1,2,1.9,2.8c0.4,0.4,0.9,0.8,1.3,1.1c0.8,0.7,1.5,1.6,1.9,2.6
			c0.2,0.4,0.4,0.8,0.6,1.2c0.2,0.4,0.5,0.7,0.8,1.1c0,0,0,0,0.1,0c-0.1-0.3-0.2-0.6-0.3-0.9c-1.6-4.2-3.2-8.4-4.8-12.5
			c-0.1-0.3-0.2-0.6-0.2-0.9c-0.1-0.3,0.1-0.5,0.3-0.6c0.2-0.1,0.5,0,0.7,0.2c0.1,0.2,0.3,0.4,0.4,0.6c1.7,3.5,3.3,7.1,5,10.6
			c0.3,0.7,0.6,1.4,0.9,2c0,0.1,0.1,0.1,0.1,0.2v-0.1c0-1.3,0-2.6-0.1-3.9c-0.1-0.6-0.4-1.2-0.6-1.8c-0.2-0.3-0.3-0.7-0.5-1
			c-0.6-1.3-0.8-2.6-0.5-4c0.1-0.7,0.2-1.3,0.1-2c-0.1-0.4-0.2-0.8-0.5-1.2c-0.1-0.1-0.2-0.2-0.2-0.3c-0.2-0.3,0-0.6,0.3-0.7
			c0.4-0.1,0.7,0.1,0.9,0.3c0.6,0.5,0.9,1.2,1.1,2c0.2,0.7,0.1,1.3,0,2c-0.1,1,0.1,2,0.5,3c0.3,0.6,0.5,1.2,0.8,1.7
			c0.6,1.1,0.8,2.3,0.9,3.5c0,0.8,0,1.5,0.3,2.2c0,0.1,0,0.1,0.1,0.2c0-0.1,0-0.2,0-0.2c0.1-2,0.1-4,0.2-5.9
			c0.1-2.8,0.2-5.6,0.3-8.3c0-0.2,0-0.3,0-0.5c0-0.4,0.3-0.6,0.6-0.6c0.3,0,0.6,0.3,0.6,0.7c0,0.5,0.1,1.1,0.1,1.6
			c0.1,2.9,0.2,5.9,0.3,8.8c0.1,1.4,0.1,2.9,0.2,4.3l0,0c0.5-1.2,1-2.5,1.4-3.7c0.1-0.3,0.1-0.6,0.1-0.8c0-1,0-2,0-3.1
			c0-1,0.4-2,0.9-2.8c0.3-0.5,0.6-1,0.9-1.6c0.3-0.7,0.4-1.3,0.2-2.1c0-0.1-0.1-0.3,0-0.5c0.1-0.3,0.4-0.3,0.7-0.2
			c0.3,0.1,0.5,0.4,0.6,0.7c0.4,1,0.3,2-0.1,3c-0.1,0.3-0.3,0.6-0.4,0.8c-0.7,1.1-0.8,2.4-0.8,3.6c0,0.6,0.1,1.1,0.1,1.7
			c0.1,1-0.1,2-0.5,3c-0.2,0.6-0.4,1.3-0.6,1.9c-0.1,0.2-0.1,0.5,0,0.8c0-0.1,0.1-0.2,0.1-0.2c2-4.3,4-8.5,6-12.8
			c0.1-0.2,0.2-0.4,0.3-0.6c0.2-0.3,0.5-0.4,0.8-0.3s0.4,0.5,0.3,0.8c-0.2,0.6-0.5,1.3-0.7,1.9c-1.5,3.9-3,7.7-4.5,11.6
			c0,0.1-0.1,0.1-0.1,0.2h0.1c0.9-0.9,1.7-1.8,2.6-2.7c0.5-0.5,0.7-1.1,1-1.8c0.2-0.5,0.4-1,0.6-1.5c0.4-1,1.1-1.9,2-2.5
			c0.4-0.3,0.9-0.6,1.3-1c0.5-0.5,1-1,1.2-1.8c0-0.1,0-0.2,0-0.4c0-0.2,0.1-0.4,0.3-0.5c0.2-0.1,0.4,0,0.6,0.2s0.3,0.4,0.3,0.7
			c0,1-0.4,1.8-1,2.6c-0.2,0.3-0.5,0.5-0.8,0.7c-1.1,0.8-1.9,1.9-2.3,3.2c-0.1,0.4-0.3,0.8-0.4,1.2c-0.4,1.1-1,2.1-1.8,3
			c-0.5,0.5-0.9,1-1.3,1.6c-0.1,0.2-0.2,0.3-0.2,0.6c0.2-0.2,0.4-0.4,0.6-0.6c3.3-3,6.6-5.9,9.8-8.9c0.3-0.3,0.6-0.5,0.9-0.7
			c0.2-0.2,0.6-0.2,0.8,0c0.3,0.2,0.3,0.6,0,0.8c-0.3,0.3-0.5,0.6-0.8,0.9c-3.1,3.2-6.2,6.5-9.3,9.7c-0.1,0.1-0.1,0.1-0.2,0.2
			c1.4-0.5,2.8-1,4-1.8c0.4-0.2,0.7-0.6,1-0.9s0.6-0.6,0.9-0.9c1-1.1,2.3-1.8,3.8-2.1c0.7-0.1,1.4-0.4,2-0.8c0.4-0.3,0.7-0.6,0.9-1
			v-0.1c0.1-0.2,0.3-0.3,0.5-0.3s0.4,0.3,0.4,0.6c0,0.2,0,0.5-0.1,0.7c-0.4,0.9-1,1.5-1.9,1.9c-0.3,0.2-0.7,0.3-1,0.4
			c-1.4,0.3-2.5,1.1-3.4,2.1c-0.3,0.3-0.5,0.6-0.8,0.9c-0.8,0.9-1.7,1.6-2.9,2.1c-0.5,0.2-1,0.4-1.4,0.7c-0.3,0.2-0.6,0.4-0.9,0.7
			c0,0,0,0,0,0.1c0.6-0.2,1.1-0.4,1.7-0.6c4.2-1.5,8.4-3,12.5-4.5c0.2-0.1,0.4-0.1,0.6-0.1s0.4,0.1,0.5,0.4c0.1,0.2,0,0.5-0.2,0.6
			s-0.4,0.3-0.7,0.4c-2.5,1.1-5.1,2.2-7.6,3.4c-1.8,0.8-3.6,1.6-5.4,2.4c-0.1,0-0.1,0.1-0.2,0.1c0,0,0,0,0.1,0c1.3,0,2.6,0,4-0.2
			c0.6-0.1,1.2-0.3,1.8-0.5c0.6-0.2,1.1-0.5,1.7-0.7c1.1-0.4,2.2-0.5,3.4-0.3c0.8,0.1,1.6,0.3,2.5,0.1c0.4-0.1,0.8-0.3,1.2-0.5
			c0.1-0.1,0.2-0.1,0.3-0.2c0.3-0.2,0.7,0,0.7,0.4c0,0.3-0.2,0.6-0.4,0.8c-0.5,0.5-1,0.7-1.6,0.9c-0.6,0.2-1.3,0.2-1.9,0.1
			c-1.5-0.2-2.8,0-4.1,0.7c-0.6,0.3-1.3,0.6-1.9,0.9c-1.1,0.5-2.3,0.5-3.5,0.5c-0.3,0-0.7,0-1,0.1s-0.7,0.2-1,0.3h0.1
			c4.8,0.2,9.6,0.3,14.4,0.5c0.3,0,0.5,0,0.8,0s0.5,0.1,0.7,0.3c0,0.2,0,0.4,0,0.5c-0.2,0.2-0.5,0.3-0.8,0.3c-0.7,0-1.5,0.1-2.2,0.1
			c-3.8,0.1-7.6,0.2-11.4,0.4c-0.4,0-0.9,0-1.3,0.1c1,0.4,1.9,0.8,2.9,1.2c0.8,0.3,1.6,0.5,2.5,0.4c0.4,0,0.8,0,1.2,0
			c0.6,0,1.2,0,1.8,0c0.8,0.1,1.5,0.4,2.1,0.7c0.4,0.3,0.9,0.5,1.3,0.7c0.9,0.4,1.8,0.7,2.7,0.3c0.2-0.1,0.4,0,0.5,0.1
			c0.1,0.2,0.2,0.4,0.1,0.5c-0.1,0.2-0.2,0.4-0.3,0.4c-0.4,0.2-0.8,0.3-1.2,0.4c-1.1,0.1-2-0.1-3-0.6c-0.5-0.3-1-0.5-1.5-0.6
			c-1.1-0.3-2.2-0.3-3.4-0.2c-1.3,0.1-2.6,0-3.8-0.4c-0.5-0.2-1-0.4-1.6-0.5c-0.4-0.1-0.8-0.1-1.2-0.2c0,0,0,0,0,0.1
			c0.2,0.1,0.5,0.2,0.7,0.3c4.3,1.9,8.6,3.8,12.9,5.7c0.2,0.1,0.4,0.2,0.6,0.4c0.3,0.3,0.1,0.8-0.3,0.9c-0.1,0-0.3,0-0.5,0
			c-0.3-0.1-0.6-0.2-0.9-0.3c-4.3-1.6-8.7-3.1-13-4.7c-0.1,0-0.2-0.1-0.3-0.1c0.6,0.6,1.2,1.2,1.8,1.8c0.9,0.8,1.9,1.5,3,1.8
			c0.3,0.1,0.5,0.2,0.8,0.3c1.4,0.5,2.5,1.3,3.4,2.5c0.3,0.5,0.8,0.9,1.2,1.3c0.4,0.4,0.9,0.6,1.5,0.7c0.1,0,0.3,0,0.4,0.1
			c0.3,0.1,0.4,0.3,0.3,0.6c-0.1,0.2-0.3,0.4-0.6,0.4c-0.6,0.1-1.1,0-1.7-0.2c-0.9-0.3-1.6-0.9-2.1-1.7c-0.7-0.9-1.5-1.5-2.5-1.9
			c-0.6-0.2-1.3-0.5-1.9-0.7c-1.1-0.4-2.1-0.9-3-1.7c-0.3-0.3-0.7-0.7-1.1-0.9c-0.3-0.3-0.7-0.5-1.1-0.7c0,0,0,0,0,0.1l0.1,0.1
			c1.6,1.7,3.3,3.4,4.9,5.1c1.8,1.9,3.5,3.7,5.3,5.6c0.1,0.1,0.2,0.3,0.3,0.5c0.1,0.3-0.1,0.7-0.4,0.7c-0.2,0-0.4-0.1-0.6-0.2
			s-0.4-0.3-0.6-0.5c-3.4-3.1-6.9-6.2-10.3-9.3c-0.1,0-0.1-0.1-0.2-0.2c0.3,0.7,0.6,1.4,0.9,2.1c0.5,1.2,1.3,2.4,2.3,3.2
			c0.2,0.2,0.4,0.4,0.6,0.6c0.4,0.4,0.8,0.9,1.1,1.3c0.5,0.7,0.7,1.6,1,2.5c0.3,1.1,0.7,2.2,1.9,2.7c0.2,0.1,0.3,0.2,0.3,0.4
			c0,0.2-0.2,0.4-0.4,0.4c-0.4,0.1-0.7,0-1-0.1c-0.7-0.3-1.3-0.8-1.6-1.5c-0.3-0.5-0.5-1-0.6-1.6c-0.3-0.9-0.7-1.7-1.4-2.3
			c-0.6-0.6-1.2-1.2-1.9-1.7c-0.7-0.6-1.4-1.4-1.8-2.3c-0.2-0.5-0.4-0.9-0.7-1.4c-0.2-0.4-0.6-0.8-0.8-1.2h-0.1c0,0.1,0,0.1,0.1,0.2
			c1.4,3.7,2.8,7.3,4.2,11c0.4,1,0.7,1.9,1.1,2.9c0.1,0.3,0,0.6-0.3,0.7c-0.2,0.1-0.6,0-0.8-0.2c-0.1-0.2-0.2-0.3-0.3-0.5
			c-2-4.2-4-8.5-5.9-12.7c0-0.1-0.1-0.1-0.1-0.2c0,1,0,2,0,2.9c0,1,0.3,1.9,0.7,2.9c0.2,0.5,0.5,1,0.7,1.5c0.4,0.9,0.5,1.8,0.4,2.8
			c-0.1,0.6-0.2,1.1-0.2,1.7c-0.1,0.9,0,1.8,0.7,2.5c0,0,0,0,0,0.1c0.2,0.3,0.1,0.7-0.4,0.7c-0.4,0-0.7-0.1-0.9-0.4
			c-0.9-1-1.2-2.2-1-3.5c0.2-1.2,0-2.3-0.5-3.4c-0.3-0.6-0.6-1.2-0.9-1.8c-0.4-0.8-0.7-1.6-0.7-2.4c0-0.6-0.1-1.2-0.1-1.8
			c0-0.6-0.1-1.1-0.4-1.7c0,0.2,0,0.2,0,0.3c-0.1,2.4-0.2,4.9-0.3,7.3c-0.1,2.3-0.2,4.6-0.3,7c0,0.3-0.1,0.6-0.2,0.9
			c-0.3,0-0.6,0-0.9,0c-0.1-0.2-0.2-0.4-0.2-0.5c-0.1-0.8-0.1-1.7-0.1-2.5c-0.1-3.9-0.3-7.9-0.4-11.8c0-0.1,0-0.2,0-0.3h-0.1
			c-0.4,1-0.8,2-1.2,3c-0.3,0.7-0.4,1.4-0.3,2.1c0,0.7,0,1.4,0,2.1c0,1.2-0.3,2.2-1,3.2c-0.2,0.3-0.4,0.6-0.5,0.9
			c-0.5,0.9-0.8,1.9-0.4,2.9c0.1,0.3-0.2,0.6-0.5,0.5c-0.3,0-0.5-0.2-0.6-0.4c-0.2-0.3-0.3-0.7-0.4-1.1c-0.2-1,0.1-1.9,0.5-2.7
			c0.3-0.5,0.5-1,0.7-1.5c0.4-1.1,0.3-2.2,0.2-3.3c-0.1-1.4,0-2.7,0.5-4c0.2-0.6,0.4-1.1,0.6-1.7c0.1-0.2,0.1-0.5,0.1-0.7
			c0,0,0,0-0.1,0c0,0.1-0.1,0.2-0.1,0.3c-1.5,3.3-3.1,6.5-4.6,9.8c-0.6,1.2-1.1,2.3-1.7,3.5c-0.2,0.4-0.5,0.5-0.8,0.4
			s-0.4-0.4-0.3-0.8c0.1-0.3,0.2-0.7,0.3-1c1.6-4.2,3.2-8.4,4.8-12.6c0-0.1,0.1-0.1,0.1-0.2c0,0,0,0-0.1,0c-0.8,0.8-1.6,1.7-2.4,2.5
			c-0.5,0.5-0.8,1.1-1.1,1.8c-0.2,0.5-0.4,0.9-0.5,1.4c-0.5,1.3-1.3,2.3-2.4,3.1c-0.3,0.2-0.7,0.5-1,0.7c-0.7,0.6-1.3,1.3-1.3,2.2
			c0,0.1,0,0.2-0.1,0.2c-0.1,0.2-0.2,0.3-0.5,0.3c-0.3-0.1-0.5-0.3-0.6-0.6c-0.1-0.5,0-1,0.1-1.4c0.3-1,1-1.7,1.8-2.3
			c1-0.7,1.7-1.7,2.1-2.9c0.2-0.5,0.4-1.1,0.6-1.6c0.3-0.9,0.8-1.8,1.5-2.5c0.4-0.5,0.9-0.9,1.3-1.4c0.2-0.3,0.4-0.6,0.6-1
			c0,0,0,0-0.1,0c-0.1,0.1-0.1,0.1-0.2,0.2c-3.1,2.8-6.3,5.7-9.4,8.5c-0.6,0.5-1.2,1.1-1.8,1.6c-0.3,0.2-0.6,0.2-0.8,0
			c-0.2-0.2-0.2-0.5,0-0.8c0.2-0.2,0.4-0.4,0.5-0.6c3.2-3.3,6.4-6.6,9.5-9.9c0.1-0.1,0.1-0.2,0.2-0.2c-0.9,0.3-1.8,0.7-2.7,1.1
			c-1,0.4-1.8,1-2.5,1.8c-0.3,0.3-0.6,0.6-0.9,0.9c-0.9,1-2,1.6-3.4,1.9c-0.5,0.1-0.9,0.2-1.3,0.4c-0.8,0.3-1.5,0.7-1.9,1.5
			c0,0.1-0.1,0.1-0.1,0.2c-0.2,0.2-0.5,0.2-0.7,0s-0.2-0.5-0.2-0.7c0.1-0.5,0.4-0.9,0.7-1.3c0.6-0.7,1.3-1.1,2.2-1.3
			c1.5-0.4,2.8-1.2,3.8-2.4c0.2-0.3,0.4-0.5,0.7-0.7c0.7-0.8,1.6-1.5,2.6-1.9c0.5-0.2,1-0.4,1.5-0.7c0.4-0.2,0.8-0.5,1.1-0.8
			c0,0,0,0,0-0.1c-0.1,0-0.2,0-0.2,0.1c-4.5,1.6-9,3.2-13.5,4.9c-0.3,0.1-0.6,0.2-0.9,0.3c-0.3,0.1-0.6-0.1-0.7-0.3
			c-0.1-0.3,0-0.6,0.3-0.7c0.2-0.1,0.5-0.2,0.7-0.4c4.3-1.9,8.6-3.8,12.9-5.7c0.1,0,0.1-0.1,0.2-0.1c0,0,0,0,0-0.1
			c-1.1,0-2.3,0.1-3.4,0.1c-0.8,0-1.5,0.2-2.2,0.5c-0.5,0.2-1,0.4-1.5,0.6c-1.1,0.5-2.2,0.7-3.3,0.6c-0.4-0.1-0.9-0.1-1.3-0.2
			c-1.1-0.1-2.1-0.1-3,0.7c-0.2,0.1-0.4,0.2-0.6,0.1s-0.3-0.4-0.2-0.6c0.1-0.2,0.1-0.3,0.2-0.4c0.3-0.3,0.6-0.5,0.9-0.7
			c0.9-0.5,1.9-0.6,2.9-0.5c1.2,0.2,2.4,0,3.6-0.5c0.6-0.3,1.2-0.5,1.8-0.8c1-0.5,2-0.7,3-0.7c0.6,0,1.2,0,1.8-0.1
			c0.4,0,0.8-0.2,1.1-0.3v-0.1c-0.5,0-1,0-1.5-0.1c-3.7-0.1-7.4-0.2-11.1-0.4c-0.9,0-1.8-0.1-2.7-0.1c-0.3,0-0.5-0.1-0.7-0.4
			C161.3,130.8,161.3,130.7,161.3,130.5z M189.6,141.6c0.5,0,1.1-0.1,1.6-0.1c3.7-0.6,6.5-2.5,8.3-5.7c1.1-2,1.5-4.1,1.2-6.3
			c-0.2-1.7-0.8-3.3-1.8-4.7c-1.4-2-3.3-3.4-5.6-4.2c-1.8-0.6-3.7-0.8-5.5-0.4c-3.9,0.7-6.8,2.9-8.4,6.5c-1.5,3.4-1.1,6.7,0.8,9.8
			c0.9,1.4,2.1,2.5,3.5,3.4C185.4,141,187.4,141.6,189.6,141.6z M184.5,157.3c0-0.1,0-0.1,0-0.2c-0.3-0.7-0.2-1.4,0.1-2.1
			c0.3-0.7,0.6-1.3,1-1.9c0.4-0.7,0.8-1.5,0.8-2.3s0-1.6,0-2.4s0.1-1.6,0.4-2.4c0.3-0.9,0.7-1.8,1.1-2.7c0.2-0.5,0.3-1,0.5-1.5
			c-0.5-0.2-0.5-0.2-0.6,0.1c-0.2,1.1-0.7,2.2-1.2,3.2c-0.3,0.7-0.6,1.4-0.6,2.2c0,0.5,0,0.9,0,1.4c0,0.1,0,0.2,0,0.3
			c-0.1,0-0.1-0.1-0.1-0.1c-0.2-1-0.4-2.1,0-3.1c0.3-0.7,0.5-1.4,0.8-2.1c0.2-0.7,0.3-1.4,0.3-2.2c-0.2,0-0.3,0-0.5-0.1
			c0,0.1,0,0.3,0,0.4c0,0.5,0,0.9-0.1,1.4c-0.2,0.6-0.4,1.2-0.6,1.9c-0.2,0.6-0.5,1.2-0.4,1.9c0,0.7,0.1,1.4,0.1,2.1
			c0,0.8,0,1.6-0.1,2.4s-0.5,1.5-0.9,2.2c-0.3,0.5-0.5,1-0.5,1.5c-0.1,0.6,0,1.2,0.2,1.8C184.1,157.1,184.2,157.3,184.5,157.3z
			 M186.9,120c0-0.1,0-0.2,0-0.3c-0.2-1.2-0.2-2.4-0.2-3.5c0-0.9-0.2-1.8-0.5-2.6c-0.1-0.3-0.2-0.5-0.3-0.8c0-0.1,0-0.2-0.1-0.2
			c0,0,0.1,0,0.1-0.1c0,0.1,0.1,0.1,0.1,0.2c0.3,0.6,0.7,1.2,0.9,1.8c0.3,0.8,0.3,1.6,0.3,2.4c0,0.9,0.1,1.8,0.5,2.6
			c0.1,0.3,0.2,0.4,0.6,0.2c0-0.1,0-0.2-0.1-0.3c-0.4-0.9-0.6-1.9-0.6-2.9c0-1.4-0.3-2.6-1-3.8c-0.2-0.3-0.3-0.6-0.5-0.9
			c-0.5-1.1-0.9-2.3-0.8-3.5c0-0.5,0.1-1,0.1-1.5c0-0.9-0.4-1.6-1-2.3c-0.1-0.1-0.3-0.2-0.6-0.2c0.1,0.2,0.2,0.3,0.3,0.4
			c0.3,0.3,0.5,0.7,0.5,1.1c0,0.6,0.1,1.3,0,1.9c0,0.5-0.1,1.1-0.2,1.6c-0.1,1,0.2,1.8,0.6,2.7c0.3,0.7,0.7,1.5,0.9,2.2
			c0.3,1,0.3,2,0.3,3c0,0.7,0,1.5,0.1,2.2c0,0.2,0.1,0.4,0.1,0.6C186.6,120.1,186.8,120,186.9,120z M193.4,149L193.4,149
			c-0.1,0-0.1,0-0.2-0.1c-0.4-0.7-0.9-1.3-1-2.1c-0.1-0.7-0.2-1.4-0.2-2.1c0-1-0.1-1.9-0.5-2.7c-0.1-0.2-0.2-0.2-0.4-0.2
			c-0.2,0.1-0.1,0.2,0,0.3c0.1,0.4,0.4,0.9,0.4,1.3c0.1,0.7,0.2,1.5,0.2,2.2c0.1,0.8,0.2,1.6,0.6,2.3c0.3,0.6,0.5,1.1,0.8,1.7
			c0.6,1.3,1,2.6,0.8,4c-0.1,0.5-0.1,1,0,1.4c0.1,0.7,0.4,1.4,1,1.9c0.1,0.1,0.3,0.2,0.6,0.2c-0.1-0.2-0.2-0.3-0.3-0.4
			c-0.3-0.3-0.4-0.7-0.5-1.1c-0.1-0.8-0.1-1.5,0-2.3c0.3-1.5,0.1-2.9-0.6-4.2c-0.2-0.5-0.5-0.9-0.7-1.4c-0.4-0.9-0.4-1.9-0.5-2.9
			c0-1-0.1-2-0.1-3c0-0.4-0.1-0.4-0.5-0.3c0,0,0,0-0.1,0.1c0.3,1.4,0.3,2.8,0.3,4.2c0,0.6,0.1,1.2,0.4,1.8c0.2,0.4,0.3,0.7,0.5,1.1
			C193.4,148.8,193.4,148.9,193.4,149z M162.2,125.8c0.1,0,0.1,0,0.1,0h0.1c0.6-0.2,1.3-0.2,1.9,0c0.8,0.2,1.5,0.6,2.2,1.1
			c0.8,0.5,1.8,0.8,2.7,0.8c0.7,0,1.4,0,2.1,0c0.5,0,1,0,1.5,0.1c0.9,0.2,1.7,0.5,2.6,0.8c0.8,0.3,1.6,0.6,2.3,0.9
			c0.4,0.1,0.4,0.1,0.5-0.3l0,0h-0.1c-1.2-0.2-2.4-0.7-3.5-1.2c-0.5-0.2-1.1-0.4-1.6-0.5c-0.6-0.1-1.2,0-1.8-0.1c-0.1,0-0.2,0-0.3,0
			c0-0.1,0.1-0.1,0.1-0.1c0.9-0.2,1.9-0.3,2.8-0.1c0.8,0.2,1.5,0.5,2.2,0.8c0.8,0.3,1.7,0.4,2.5,0.4c0-0.2,0-0.3,0.1-0.4
			c-0.2,0-0.3,0-0.5,0c-0.9,0-1.8-0.1-2.6-0.5c-0.3-0.1-0.6-0.2-0.8-0.3c-0.5-0.1-1-0.3-1.4-0.3c-0.8,0-1.7,0-2.5,0
			c-1.7,0.1-3.3,0-4.7-0.9c-0.1-0.1-0.2-0.1-0.3-0.2c-0.7-0.3-1.4-0.5-2.1-0.4c-0.4,0-0.7,0.2-1.1,0.3
			C162.4,125.5,162.3,125.6,162.2,125.8z M178.2,132.1c-0.1,0-0.2,0.1-0.3,0.1c-0.6,0.2-1.2,0.4-1.8,0.5c-0.6,0.1-1.2,0.1-1.7,0.1
			c-1,0-2,0.2-2.9,0.7c-0.4,0.2-0.8,0.4-1.1,0.5c-0.9,0.4-1.8,0.7-2.7,0.9c-0.7,0.1-1.4,0-2-0.1c-1-0.1-1.8,0.1-2.6,0.6
			c-0.2,0.1-0.4,0.3-0.6,0.5c-0.1,0.1-0.1,0.2-0.1,0.4c0.4-0.2,0.8-0.5,1.2-0.6c0.9-0.3,1.9-0.2,2.9-0.1c1,0.2,2.1,0.2,3.1-0.1
			c0.6-0.2,1.3-0.5,1.9-0.8c1-0.5,2.1-0.7,3.2-0.7c1,0,2.1-0.1,3.1-0.1c0.3,0,0.6,0,0.9-0.1c0-0.2-0.1-0.3-0.1-0.5
			c-0.3,0-0.7,0.1-1,0.1c-1.1,0-2.2,0.1-3.2,0.1c-0.6,0-1.3,0-1.9,0.3c-0.5,0.2-0.9,0.4-1.4,0.6c-0.1,0-0.2,0.1-0.2,0.1
			c0-0.1,0-0.1,0-0.1c1-0.7,2-1.2,3.2-1.3c0.6,0,1.2-0.1,1.8-0.1c0.8,0,1.6-0.2,2.3-0.5c0.1,0,0.2-0.1,0.1-0.2
			C178.3,132.3,178.3,132.2,178.2,132.1z M192.7,120.1c0-0.1,0-0.2,0-0.3c0-0.5,0-1,0.1-1.5c0.1-0.6,0.4-1.2,0.6-1.8
			c0.5-1.1,0.5-2.2,0.5-3.3c0-0.7-0.1-1.4-0.1-2.1c0-0.9,0.2-1.8,0.7-2.6c0.2-0.3,0.3-0.6,0.4-0.8c0.4-0.6,0.5-1.3,0.4-2
			c0-0.4-0.2-0.7-0.3-1.1c-0.1-0.2-0.2-0.3-0.4-0.3c0,0.1,0,0.1,0,0.2c0.3,0.7,0.2,1.5-0.1,2.2c-0.3,0.7-0.7,1.4-1.1,2
			c-0.3,0.6-0.6,1.1-0.7,1.8c-0.1,0.8-0.1,1.7-0.1,2.5c0,0.5,0,0.9-0.1,1.4c-0.1,1-0.5,1.9-0.9,2.9c-0.3,0.8-0.6,1.5-0.9,2.3
			c0,0.1,0,0.2,0,0.3c0.4,0.1,0.5,0.1,0.6-0.3c0.1-0.3,0.1-0.6,0.3-0.9c0.4-0.9,0.7-1.8,1.1-2.7c0.2-0.4,0.3-0.9,0.3-1.4
			c0-0.6,0-1.2,0-1.7c0-0.1,0-0.2,0-0.2s0,0,0.1,0c0,0.1,0,0.1,0.1,0.2c0.3,1.4,0.2,2.7-0.4,4c-0.3,0.6-0.6,1.3-0.6,2
			c0,0.4-0.1,0.8-0.1,1.3C192.4,120,192.6,120,192.7,120.1z M200.7,128.1c0.1,0,0.1,0,0.2,0c0.5-0.1,0.9-0.1,1.4-0.2
			c0.9,0,1.8-0.1,2.7-0.1c0.8,0,1.5-0.2,2.3-0.5c0.3-0.1,0.6-0.2,0.9-0.4c0.1,0,0.2,0,0.2-0.1v0.1c-0.4,0.3-0.9,0.6-1.3,0.8
			c-0.7,0.3-1.5,0.5-2.2,0.5c-0.8,0-1.5,0-2.3,0.1c-0.6,0.1-1.1,0.3-1.6,0.4c0,0.2,0.1,0.3,0.1,0.5c0.1,0,0.2-0.1,0.3-0.1
			c0.9-0.4,1.8-0.5,2.8-0.6c0.8,0,1.7,0,2.5-0.3c0.7-0.3,1.5-0.6,2.2-1c1.5-0.7,3.1-1.1,4.8-0.8c0.8,0.1,1.6,0,2.3-0.4
			c0.3-0.2,0.6-0.5,0.9-0.7c0.1-0.1,0.2-0.3,0-0.4c-0.6,0.6-1.4,0.8-2.2,0.8c-0.6,0-1.2,0-1.7-0.1c-1-0.2-2.1-0.2-3.1,0.1
			c-0.6,0.2-1.2,0.5-1.8,0.7c-1.1,0.5-2.2,0.7-3.4,0.8c-1,0-2,0.1-3,0.1c-0.3,0-0.6,0-0.9,0.1C200.6,127.9,200.7,128,200.7,128.1z
			 M200.6,133.8c0.1,0,0.2,0,0.3,0c1.1,0,2.1,0.2,3.1,0.6c0.6,0.2,1.2,0.4,1.8,0.5c0.8,0.1,1.7,0,2.5,0c1.6-0.1,3.2,0,4.7,0.9
			c0.5,0.3,1,0.5,1.6,0.6s1.2,0.1,1.8-0.2c0.2-0.1,0.4-0.2,0.4-0.5c-0.1,0-0.2,0-0.2,0c-0.7,0.3-1.5,0.2-2.2-0.1
			c-0.7-0.3-1.4-0.7-2.1-1c-0.8-0.5-1.7-0.7-2.7-0.7c-1.1,0-2.1,0-3.2,0c-0.1,0-0.2,0-0.3,0c-0.6-0.2-1.2-0.3-1.9-0.6
			c-1-0.4-2-0.8-3-1.1c-0.5-0.2-0.4-0.2-0.5,0.3c0,0,0,0,0,0.1h0.1c1.2,0.2,2.4,0.7,3.6,1.2c0.5,0.2,1.1,0.4,1.6,0.5s1.1,0,1.6,0.1
			c0.1,0,0.3,0,0.4,0c0,0.1-0.1,0.1-0.1,0.1c-0.9,0.2-1.8,0.3-2.7,0c-0.7-0.2-1.5-0.5-2.2-0.8c-0.8-0.3-1.7-0.4-2.5-0.4
			C200.7,133.5,200.6,133.6,200.6,133.8z M166.8,146c0.1-0.1,0.1-0.2,0.1-0.2c0.2-0.5,0.6-0.8,1.1-1.1c0.7-0.4,1.4-0.7,2.1-0.8
			c1.4-0.3,2.6-0.9,3.6-2c0.3-0.3,0.7-0.7,1-1c0.5-0.6,1.2-1,1.9-1.4c0.6-0.3,1.2-0.6,1.9-0.8c0.6-0.3,1.3-0.6,1.9-0.9
			c0.1,0,0.2-0.1,0.3-0.2c-0.1-0.1-0.2-0.3-0.3-0.4c-0.1,0.1-0.3,0.2-0.4,0.2c-0.8,0.4-1.5,0.8-2.3,1.1c-1.4,0.5-2.7,1.2-3.7,2.3
			c-0.1,0.1-0.1,0.1-0.2,0.2c0,0,0,0-0.1,0c0-0.1,0.1-0.1,0.1-0.2c0.7-1,1.5-1.8,2.6-2.3c0.3-0.1,0.6-0.3,0.9-0.4
			c0.9-0.3,1.6-0.8,2.3-1.4c0.2-0.2,0.2-0.3,0-0.5l-0.1-0.1c-0.1,0.1-0.1,0.1-0.2,0.2c-0.7,0.7-1.6,1.3-2.5,1.7
			c-0.2,0.1-0.3,0.2-0.5,0.2c-0.9,0.4-1.6,0.9-2.3,1.6c-0.3,0.4-0.7,0.8-1.1,1.1c-1,1.1-2.2,2-3.7,2.3c-0.6,0.1-1.2,0.4-1.7,0.8
			c-0.4,0.4-0.8,0.8-1,1.3C166.7,145.6,166.6,145.8,166.8,146z M179.9,125c-0.1-0.1-0.2-0.1-0.3-0.2c-0.7-0.5-1.3-1.1-2-1.6
			c-1.7-1.6-1.4-1.6-3.7-2.5c-0.1,0-0.1-0.1-0.2-0.1c0.1-0.1,0.1-0.1,0.1,0c1.2,0.2,2.4,0.6,3.3,1.5c0.4,0.4,0.9,0.9,1.4,1.3
			c0.5,0.5,1.2,0.7,1.8,1c0.1-0.1,0.2-0.2,0.2-0.4c-0.1,0-0.1-0.1-0.1-0.1c-1.1-0.5-2.1-1.2-3-2c-0.6-0.6-1.2-1-2-1.3
			c-0.7-0.2-1.3-0.5-2-0.7c-1.3-0.4-2.5-1.1-3.4-2.2c-0.2-0.3-0.5-0.6-0.8-0.8c-0.7-0.7-1.5-1-2.5-1c-0.2,0-0.4,0-0.6,0.3
			c0.2,0,0.4,0,0.6,0.1c0.7,0.1,1.2,0.5,1.7,0.9c0.5,0.5,0.9,1,1.3,1.5c0.6,0.8,1.4,1.4,2.4,1.8c0.4,0.2,0.8,0.3,1.2,0.5
			c1.4,0.4,2.5,1.2,3.5,2.2c0.4,0.4,0.8,0.8,1.2,1.2c0.4,0.4,0.9,0.8,1.3,1.1C179.8,125.2,179.8,125.1,179.9,125z M195.2,140.4
			c0.1,0.1,0.1,0.1,0.2,0.2c0.7,0.7,1.3,1.4,1.6,2.3c0.6,1.4,1.6,2.6,2.8,3.6c1.4,1.1,2.4,2.4,2.8,4.1c0.1,0.5,0.4,1,0.8,1.4
			c0.4,0.5,0.9,0.9,1.5,1c0.1,0,0.3,0,0.4,0v-0.1c-0.1,0-0.1-0.1-0.2-0.1c-0.5-0.2-0.9-0.6-1.2-1.1c-0.4-0.6-0.6-1.3-0.8-2
			c-0.3-1.1-0.6-2.1-1.5-2.9c-0.4-0.4-0.8-0.8-1.3-1.2c-0.8-0.7-1.4-1.4-1.8-2.3c-0.2-0.5-0.5-1-0.7-1.5c-0.3-0.7-0.6-1.4-1-2.1
			c0-0.1-0.1-0.2-0.2-0.3c-0.1,0.1-0.2,0.1-0.2,0.1c-0.1,0.1-0.2,0.2-0.1,0.3c0.7,1,1.2,2.1,1.6,3.3c0.3,0.8,0.7,1.4,1.3,2
			c0.3,0.3,0.6,0.5,0.8,0.8c0.1,0.1,0.1,0.1,0.2,0.2c-0.1,0-0.1,0-0.1,0s0,0-0.1,0c-1.1-0.7-2-1.4-2.5-2.6c-0.2-0.4-0.4-0.8-0.5-1.2
			c-0.4-0.8-0.9-1.5-1.6-2.2c-0.1,0-0.2,0.1-0.2,0.1C195.3,140.3,195.2,140.4,195.2,140.4z M199.6,125.4c0.9-1.1,2.1-1.6,3.4-2.2
			c1-0.4,1.8-1.1,2.5-1.9c0.4-0.5,0.8-0.9,1.3-1.4c0.7-0.7,1.4-1.2,2.4-1.5c0.3-0.1,0.7-0.2,1-0.3c0.9-0.3,1.6-0.8,2.1-1.6
			c0.1-0.2,0.2-0.4,0.3-0.7c0-0.1,0-0.2-0.1-0.4h-0.1c0,0.1-0.1,0.1-0.1,0.2c-0.2,0.5-0.6,0.8-1.1,1.1c-0.7,0.4-1.4,0.6-2.1,0.8
			c-1.4,0.3-2.6,0.9-3.5,1.9c-0.3,0.4-0.7,0.7-1.1,1.1c-0.5,0.6-1.2,1-1.9,1.3c-0.3,0.1-0.6,0.3-0.9,0.4c-0.9,0.4-1.8,0.8-2.7,1.2
			c-0.2,0.1-0.3,0.2-0.5,0.3c0.1,0.2,0.2,0.3,0.3,0.4c1.2-0.9,2.6-1.3,4-1.9c0.6-0.2,1.1-0.6,1.5-1c0.3-0.2,0.5-0.5,0.8-0.7
			c0.1-0.1,0.1-0.1,0.2-0.2c0,0.1,0,0.1,0,0.1v0.1c-0.6,0.9-1.3,1.6-2.3,2.1c-0.5,0.3-1.1,0.5-1.6,0.7c-0.8,0.3-1.5,0.9-2.1,1.5
			C199.4,125.1,199.4,125.2,199.6,125.4z M183.7,140.2c-0.1,0.1-0.2,0.2-0.2,0.3c-0.6,0.8-1.2,1.5-2,2.1c-1.1,0.9-1.8,2.1-2.3,3.5
			c0,0,0,0.1-0.1,0.1c-0.1-0.1-0.1-0.1-0.1-0.2c0.2-0.8,0.3-1.7,0.8-2.3c0.4-0.6,0.9-1.1,1.4-1.6c0.6-0.6,1.1-1.3,1.4-2
			c0.2-0.4,0.3-0.3-0.2-0.6c0,0,0,0-0.1,0c-0.1,0.1-0.1,0.2-0.2,0.3c-0.3,0.6-0.6,1.2-1.1,1.7c-0.3,0.3-0.6,0.6-0.9,0.9
			c-0.6,0.6-1.1,1.2-1.4,2c-0.2,0.6-0.5,1.2-0.7,1.9c-0.5,1.4-1.3,2.7-2.5,3.5c-0.5,0.3-0.9,0.8-1.2,1.3c-0.3,0.5-0.5,1.1-0.4,1.7
			c0,0.2,0.1,0.4,0.3,0.4c0-0.1,0-0.2,0-0.3c0.1-0.7,0.4-1.3,0.9-1.7c0.6-0.6,1.2-1,1.9-1.5c0.7-0.5,1.2-1.1,1.6-1.9
			c0.3-0.6,0.5-1.2,0.8-1.9c0.4-1,0.9-1.8,1.7-2.6c0.8-0.8,1.6-1.7,2.4-2.5c0.1-0.1,0.2-0.3,0.4-0.4
			C183.9,140.3,183.8,140.3,183.7,140.2z M199.3,136.5c0.1,0.1,0.2,0.1,0.2,0.2c0.5,0.4,1.1,0.9,1.6,1.3c0.4,0.4,0.8,0.8,1.2,1.2
			c0.6,0.6,1.2,1,1.9,1.3c0.3,0.1,0.6,0.2,0.9,0.4c0.1,0,0.1,0.1,0.2,0.1l-0.1,0.1h-0.1c-1.3-0.2-2.5-0.7-3.4-1.7
			c-0.2-0.2-0.4-0.3-0.5-0.5c-0.6-0.7-1.4-1.1-2.2-1.5c-0.3-0.1-0.4-0.1-0.5,0.2c0.1,0,0.1,0.1,0.2,0.1c1.1,0.4,2,1.1,2.9,1.9
			c0.7,0.7,1.6,1.2,2.6,1.5c0.5,0.2,0.9,0.3,1.4,0.5c1.5,0.5,2.7,1.2,3.7,2.5c0.1,0.2,0.3,0.4,0.5,0.5c0.7,0.7,1.6,1.1,2.6,1.1
			c0.2,0,0.4-0.1,0.5-0.3c-0.1,0-0.2,0-0.2,0c-0.3-0.1-0.7-0.1-1-0.2c-1-0.4-1.6-1.3-2.3-2.1c-0.4-0.5-0.8-1-1.4-1.4
			c-0.8-0.6-1.7-0.9-2.6-1.2c-1-0.3-1.9-0.8-2.6-1.5c-0.6-0.5-1.1-1.1-1.7-1.6c-0.5-0.4-0.9-0.8-1.4-1.2
			C199.5,136.2,199.4,136.4,199.3,136.5z M204.7,108.2c-0.1,0.4-0.2,0.9-0.4,1.2c-0.4,0.9-1.3,1.6-2.1,2.1c-0.7,0.5-1.3,1-1.7,1.7
			c-0.4,0.7-0.7,1.4-1,2.2c-0.4,1-0.9,1.9-1.7,2.7c-0.8,0.8-1.5,1.6-2.3,2.3c-0.2,0.2-0.3,0.4-0.5,0.6c0.2,0.1,0.3,0.2,0.4,0.3
			l0.1-0.1c0.7-0.9,1.4-1.8,2.3-2.5c0.8-0.7,1.4-1.5,1.7-2.5c0.1-0.2,0.2-0.5,0.3-0.7c0-0.1,0.1-0.1,0.1-0.2
			c0.1,0.1,0.1,0.1,0.1,0.2c-0.2,1-0.5,1.9-1.2,2.7c-0.4,0.5-0.9,0.9-1.3,1.4c-0.6,0.6-1,1.3-1.3,2.1c0.1,0.1,0.2,0.2,0.4,0.2
			c0-0.1,0.1-0.1,0.1-0.1c0.5-1.2,1.2-2.1,2.1-3c0.7-0.7,1.2-1.4,1.5-2.3c0.2-0.6,0.4-1.1,0.6-1.7c0.5-1.3,1.2-2.4,2.3-3.2
			c0.4-0.3,0.7-0.6,1-1c0.5-0.6,0.8-1.3,0.7-2.2C205,108.5,204.9,108.3,204.7,108.2z M178.9,115.4
			C178.9,115.4,178.9,115.3,178.9,115.4c0.1,0,0.1,0,0.1,0c1,0.7,2,1.4,2.5,2.6c0.2,0.5,0.5,1.1,0.7,1.6c0.3,0.7,0.9,1.3,1.4,1.8
			c0.1-0.1,0.2-0.1,0.2-0.1c0.1,0,0.1-0.1,0.2-0.1c-0.1-0.1-0.2-0.2-0.3-0.3c-0.7-0.6-1.2-1.4-1.5-2.2c-0.1-0.2-0.2-0.3-0.3-0.5
			c-0.4-0.9-1-1.7-1.7-2.3c-0.6-0.5-1.1-0.9-1.7-1.5c-0.7-0.7-1.3-1.5-1.6-2.5c-0.2-0.5-0.3-0.9-0.5-1.4c-0.4-0.8-0.9-1.4-1.7-1.8
			c-0.2-0.1-0.5-0.1-0.7,0c0,0,0,0.1,0.1,0.1s0.1,0.1,0.2,0.1c0.6,0.3,1,0.7,1.3,1.2c0.3,0.6,0.5,1.2,0.7,1.8c0.3,1.4,1,2.6,2.1,3.6
			c0.2,0.2,0.5,0.4,0.7,0.6c0.9,0.8,1.6,1.7,2.1,2.8c0.4,0.9,0.8,1.8,1.2,2.7c0.1,0.2,0.3,0.4,0.4,0.7c0.2-0.1,0.3-0.2,0.4-0.3
			c0-0.1,0-0.1-0.1-0.1c-0.6-0.9-1.1-1.9-1.5-3s-1.1-2.1-2-2.9c-0.1-0.1-0.3-0.2-0.4-0.3C178.9,115.5,178.9,115.4,178.9,115.4z
			 M190,119.6c0.4,0,0.4,0,0.4-0.3c0-0.9-0.1-1.8-0.1-2.7c-0.1-3.5-0.2-7-0.4-10.5c0-0.8-0.1-1.5-0.1-2.3c0-0.1-0.1-0.2-0.2-0.3
			c-0.1,0.1-0.2,0.2-0.2,0.3c0,0.5-0.1,1-0.1,1.5c-0.1,2-0.1,3.9-0.2,5.9c-0.1,2.7-0.2,5.4-0.3,8.2c0,0.1,0,0.2,0,0.3
			c0.2,0,0.3,0,0.4,0c0.1-2.5,0.2-5,0.3-7.5h0.1C189.7,114.6,189.9,117.1,190,119.6z M189.6,158c0.2-0.1,0.2-0.3,0.2-0.5
			c0.1-1.2,0.1-2.3,0.1-3.5c0.1-4,0.3-7.9,0.4-11.9c0-0.1,0-0.1,0-0.2c-0.1,0-0.3,0-0.4,0c-0.1,2.5-0.2,5-0.3,7.5h-0.1
			c-0.2-2.5-0.2-5-0.4-7.6c-0.1,0-0.3,0-0.4,0c0,0.1,0,0.2,0,0.3c0,0.9,0.1,1.8,0.1,2.8c0.1,3.5,0.2,7,0.4,10.5c0,0.7,0.1,1.4,0.1,2
			C189.4,157.6,189.4,157.8,189.6,158z M200.4,127.2c0.1,0,0.2-0.1,0.2-0.1c3.4-1.5,6.8-3,10.2-4.5c1.4-0.6,2.8-1.3,4.2-1.9
			c0.1-0.1,0.3-0.2,0.4-0.3c-0.1-0.2-0.2-0.2-0.3-0.2c-0.2,0.1-0.3,0.1-0.5,0.2c-4.9,1.8-9.7,3.5-14.6,5.3c-0.1,0-0.1,0.1-0.2,0.1
			c0.1,0.1,0.1,0.2,0.1,0.3c2.5-0.9,4.9-1.8,7.3-2.6v0.1c-2.4,1.1-4.7,2.1-7.1,3.2C200.3,127,200.4,127.1,200.4,127.2z M201,131.5
			c0.1,0,0.2,0,0.3,0c2.1-0.1,4.3-0.1,6.4-0.2c3-0.1,6-0.2,9-0.3c0.2,0,0.4,0,0.6-0.1c0.1,0,0.1-0.1,0.2-0.2
			c-0.1-0.1-0.1-0.1-0.2-0.2h-0.1c-1.2,0-2.4-0.1-3.6-0.1c-4.1-0.1-8.3-0.3-12.4-0.4c-0.1,0-0.1,0-0.2,0c0,0.4,0,0.4,0.3,0.4
			c2.5,0.1,4.9,0.2,7.4,0.3c0.1,0,0.1,0,0.2,0v0.1c-2.6,0.1-5.3,0.2-7.9,0.3C201,131.3,201,131.4,201,131.5z M194.7,120.8
			c0-0.1,0.1-0.2,0.1-0.3c1.2-3.2,2.5-6.5,3.7-9.7c0.6-1.6,1.2-3.2,1.8-4.7c0-0.1,0-0.2,0-0.3c-0.1,0.1-0.2,0.1-0.3,0.2
			c-0.1,0.2-0.2,0.4-0.3,0.6c-2.1,4.4-4.1,8.8-6.2,13.2c-0.1,0.2-0.1,0.3-0.2,0.5c0.1,0.1,0.2,0.1,0.4,0.2c1.1-2.3,2.1-4.5,3.2-6.8
			h0.1c-0.9,2.3-1.7,4.7-2.6,7C194.4,120.7,194.5,120.8,194.7,120.8z M170.5,130.8v-0.1c0.1,0,0.2,0,0.2,0c2.4-0.1,4.8-0.2,7.2-0.3
			c0.3,0,0.3,0,0.3-0.4c-0.4,0-0.8,0-1.2,0c-3.3,0.1-6.6,0.2-9.8,0.3c-1.7,0.1-3.4,0.1-5,0.2c-0.1,0-0.2,0-0.3,0.1
			c-0.1,0-0.1,0.1-0.1,0.1c0,0.1,0.1,0.1,0.1,0.1c0.1,0,0.3,0,0.4,0c1.1,0,2.3,0.1,3.4,0.1c4.1,0.1,8.3,0.3,12.4,0.4
			c0.1,0,0.2,0,0.3,0c0-0.1,0-0.3,0-0.4C175.6,131,173,130.9,170.5,130.8z M163.7,141c0.3,0.3,0.5,0.1,0.7,0.1
			c4.9-1.8,9.8-3.6,14.7-5.4c0.1,0,0.1-0.1,0.2-0.1c0-0.1,0-0.1-0.1-0.2c0,0-0.1-0.1-0.1-0.2c-2.4,0.9-4.7,1.7-7.1,2.6v-0.1
			c2.3-1,4.6-2.1,6.9-3.1c-0.1-0.3-0.1-0.3-0.4-0.2c0,0-0.1,0-0.1,0.1c-3.4,1.5-6.7,2.9-10.1,4.4c-1.4,0.6-2.7,1.2-4.1,1.8
			C164.1,140.8,163.9,140.9,163.7,141z M199.8,135.7c0.1,0,0.2,0.1,0.3,0.1c4.3,1.6,8.6,3.1,12.9,4.7c0.7,0.3,1.4,0.5,2.1,0.7
			c0.1,0,0.2,0,0.3-0.1c-0.1-0.1-0.1-0.2-0.2-0.2c-0.2-0.1-0.5-0.2-0.7-0.3c-4.3-1.9-8.5-3.8-12.8-5.7c-0.4-0.2-0.8-0.4-1.3-0.5
			c-0.1,0.1-0.1,0.2-0.2,0.3c2.3,1,4.6,2.1,6.9,3.1v0.1c-2.4-0.8-4.8-1.7-7.2-2.5C199.9,135.5,199.9,135.6,199.8,135.7z
			 M193.3,141.3c0,0.1,0.1,0.1,0.1,0.2c0.5,1,0.9,1.9,1.4,2.9c1.7,3.7,3.5,7.4,5.2,11.1c0,0.1,0.1,0.1,0.1,0.2
			c0.1,0.1,0.2,0.1,0.3,0.2c0-0.1,0.1-0.2,0.1-0.3c0-0.1,0-0.1-0.1-0.2c-1.8-4.8-3.7-9.6-5.5-14.3c0-0.1-0.1-0.2-0.1-0.2
			c-0.4,0.1-0.4,0.1-0.2,0.4c0.8,2.1,1.6,4.2,2.4,6.4c0,0.1,0.1,0.2,0.1,0.3c0,0,0,0-0.1,0c0-0.1-0.1-0.1-0.1-0.2
			c-0.2-0.5-0.5-1-0.7-1.4c-0.8-1.6-1.5-3.2-2.3-4.8C193.6,141.1,193.6,141.1,193.3,141.3z M181,138.1c-0.1,0.1-0.2,0.2-0.3,0.3
			c-3.4,3.6-6.9,7.1-10.3,10.7c-0.2,0.2-0.3,0.4-0.5,0.6c-0.1,0.1,0,0.2-0.1,0.3c0.1,0,0.2,0,0.3,0c0.2-0.2,0.5-0.4,0.7-0.6
			c3.2-2.9,6.5-5.9,9.7-8.8c0.5-0.4,1-0.9,1.5-1.4c-0.1-0.1-0.2-0.2-0.3-0.3c-1.9,1.7-3.7,3.4-5.6,5l-0.1-0.1
			c1.7-1.8,3.4-3.7,5.2-5.5C181.2,138.2,181.1,138.1,181,138.1z M184.5,140.7c0,0.1-0.1,0.2-0.1,0.3c-1.3,3.3-2.5,6.5-3.8,9.8
			c-0.6,1.5-1.2,3.1-1.8,4.6c-0.1,0.1-0.2,0.3,0,0.4s0.2-0.1,0.3-0.3c0.1-0.2,0.2-0.4,0.3-0.6c2.1-4.5,4.2-9,6.3-13.5
			c0-0.1,0-0.1,0.1-0.2c-0.1-0.1-0.2-0.1-0.3-0.2c-1.1,2.3-2.1,4.5-3.2,6.8h-0.1c0.9-2.3,1.7-4.7,2.6-7
			C184.8,140.8,184.7,140.7,184.5,140.7z M198.2,123.5c0-0.1,0.1-0.1,0.1-0.1c2-2,3.9-4,5.9-6.1c1.6-1.7,3.2-3.3,4.8-5
			c0.1-0.1,0.2-0.3,0.3-0.4c0-0.1,0-0.2,0-0.2c-0.1,0-0.2,0-0.2,0c-0.1,0.1-0.2,0.2-0.4,0.3c-3.8,3.5-7.7,7-11.5,10.4l-0.1,0.1
			c0.1,0.1,0.1,0.2,0.2,0.3c1.9-1.7,3.8-3.4,5.6-5.1l0.1,0.1c-1.7,1.8-3.5,3.7-5.2,5.5C198,123.3,198.1,123.4,198.2,123.5z
			 M203.2,143.9L203.2,143.9c-2-1.6-3.9-3.3-5.8-5c-0.1,0.1-0.2,0.2-0.3,0.3c0.1,0.1,0.1,0.1,0.2,0.2c2.6,2.3,5.1,4.7,7.7,7
			c1.3,1.2,2.6,2.3,3.8,3.5c0.1,0.1,0.3,0.2,0.4,0.3c0.1-0.3-0.1-0.5-0.2-0.6c-3.4-3.6-6.8-7.1-10.2-10.7c-0.2-0.2-0.4-0.4-0.6-0.7
			c-0.1,0.1-0.2,0.2-0.3,0.3C199.7,140.2,201.5,142,203.2,143.9z M182.1,122.4c-0.1-0.1-0.1-0.1-0.2-0.2c-1.6-1.5-3.2-2.9-4.8-4.4
			c-2.2-2-4.4-3.9-6.5-5.9c-0.1-0.1-0.2-0.2-0.3-0.2c-0.1,0-0.2,0-0.3-0.1c0,0.1,0,0.2,0.1,0.3c0,0.1,0.1,0.1,0.2,0.2
			c0.6,0.7,1.3,1.4,1.9,2c2.7,2.8,5.4,5.6,8.1,8.4c0.3,0.3,0.6,0.6,0.9,0.8c0,0,0.1-0.1,0.2-0.2c-1.7-1.8-3.5-3.6-5.2-5.4l0.1-0.1
			c1.9,1.7,3.7,3.3,5.6,5C181.9,122.6,182,122.5,182.1,122.4z M172,123.8v-0.1c0.1,0,0.1,0,0.2,0.1c0.8,0.3,1.5,0.6,2.3,0.8
			c1.5,0.5,3,1,4.5,1.5c0.1,0,0.2,0,0.2,0l0.1-0.2c0-0.1-0.1-0.1-0.2-0.2c-2.2-0.8-4.4-1.6-6.6-2.4c-2.7-1-5.4-2-8.1-2.9
			c-0.1,0-0.2-0.1-0.3-0.1c-0.1,0-0.2,0-0.2,0.1s0.1,0.2,0.1,0.2c0.1,0.1,0.2,0.1,0.3,0.2c4.8,2.1,9.6,4.3,14.4,6.4h0.1
			c0-0.1,0.1-0.1,0.1-0.2s0-0.1,0.1-0.2C176.6,125.8,174.3,124.8,172,123.8z M186,120.3c0-0.1-0.1-0.2-0.1-0.2
			c-2.1-4.5-4.2-8.9-6.2-13.4c-0.1-0.3-0.3-0.5-0.4-0.8c0-0.1-0.2-0.1-0.3-0.2c0,0.1-0.1,0.2-0.1,0.3c0.1,0.3,0.2,0.5,0.3,0.8
			c1.8,4.7,3.6,9.3,5.4,14c0.1-0.1,0.2-0.1,0.4-0.2c-0.9-2.3-1.8-4.7-2.7-7c0,0,0.1,0,0.1-0.1c1.1,2.2,2.1,4.5,3.2,6.7
			C185.7,120.3,185.8,120.3,186,120.3z"/>
	</g>
	<g id="XMLID_2972_">
		<g id="XMLID_2998_">
			<path id="XMLID_3036_" class="st1" d="M18.3,86.5c2-1.7,3.7-3.1,5.4-4.6c5.5-5.1,9.4-11.2,11.6-18.3c0.9-2.8,0.3-4.9-1.7-6.6
				c-2.1-1.7-4.8-1.9-7.2-0.4c-2.7,1.6-3.2,5.4-0.9,7.7c0.9,0.9,2,1.4,3.3,2.4c-1.1,0.1-1.9,0.3-2.7,0.2c-4.5-0.9-7.4-3.7-9.2-7.8
				c-3.9-8.9,0.8-20.4,9.5-24.2c2.8-1.2,5.6-1.3,8.5-0.4c0.9,0.3,1.7,0.8,1.7,2c-0.7,0-1.3,0-1.9,0c-2.8,0.3-4.8,2.1-5,4.6
				c-0.2,2.8,1.6,5.1,4.3,5.8c3.4,0.8,6.2-1,6.9-4.6c1.9-8.7,1.1-17.2-2.1-25.4c-0.1-0.3-0.2-0.7-0.4-1.2c0.5,0.1,0.9,0.1,1.3,0.2
				c18.9,5.1,37.9,9.6,57.2,13c15,2.7,30.2,4.4,45.4,5.8c11.9,1.1,23.8,1.8,35.8,1.9c9.8,0.1,19.5,0.2,29.3-0.1
				c11.1-0.4,22.2-1.1,33.3-2.1c10.8-0.9,21.6-2.1,32.4-3.7c10.9-1.7,21.8-3.8,32.6-6.1c11.7-2.5,23.3-5.5,34.9-8.3
				c0.6-0.1,1.2-0.3,2-0.6c-0.5,1.5-0.9,2.8-1.4,4.1c-2.2,7.2-2.8,14.6-1.3,22c0.6,3.1,2.1,4.8,4.7,5.3c2.4,0.4,4.3-0.4,5.8-2.4
				c1.3-1.7,1.5-3.5,0.4-5.4c-1.2-2.1-3.1-2.9-5.4-2.9c-0.2,0-0.5,0-0.7,0c-0.1,0-0.1-0.1-0.3-0.1c0-1.1,0.8-1.5,1.6-1.8
				c2.5-0.8,5.1-0.9,7.6,0.1c6.5,2.5,9.9,7.4,11.4,13.9c1.1,4.8,0.2,9.3-2.5,13.4c-1.9,2.9-4.6,4.7-8.2,5.1c-0.6,0.1-1.3-0.2-2-0.6
				c0.6-0.3,1.1-0.6,1.7-0.9c2.4-1.4,3.4-4.1,2.5-6.5c-1-2.4-3.8-3.8-6.4-3.2c-3.8,0.9-5.6,3.9-4.5,7.7c2.8,9.1,8.3,16.2,15.7,21.9
				c0.3,0.3,0.7,0.5,1,1C247.9,118.5,133.2,118.4,18.3,86.5z M32.1,88.2c105.7,27,211.3,27.1,317,0c-5.9-22.7-11.8-45.2-17.7-67.6
				c-94,24-187.8,24-281.7,0C43.8,43.2,38,65.6,32.1,88.2z"/>
			<g id="XMLID_3016_">
				<path id="XMLID_3033_" class="st2" d="M211.6,69.7c0.1-6.2,1-12.1,4-17.6c2-3.6,4.7-6.5,8.9-7.5c6-1.5,10.6,0.8,14.3,5.5
					c3.4,4.4,5.2,9.5,6.1,14.9c1,6.3,1.4,12.6-0.4,18.8c-1,3.7-2.6,7.1-5.5,9.8c-4.9,4.6-15.1,5.7-20.9-1.7c-3.3-4.2-5-9-5.7-14.2
					C212,75.1,211.9,72.4,211.6,69.7z M232.7,88.8c-0.1,0-0.1,0-0.2,0c-0.7-11.2-1.5-22.3-2.3-33.5c-0.1-1.9-0.4-3.8-0.7-5.7
					c-0.2-1-1-1.6-2.1-1.7c-1.1-0.1-1.9,0.4-2.3,1.4c-0.3,0.8-0.5,1.8-0.4,2.7c0.7,12.7,1.4,25.4,2.2,38c0,0.7,0.3,1.5,0.6,2.2
					c0.4,0.9,1.2,1.5,2.3,1.5s1.9-0.5,2.2-1.5C232.5,91.1,232.5,89.9,232.7,88.8z"/>
				<path id="XMLID_3032_" class="st2" d="M188.5,73.7c0,5.5,0,11,0,16.4c0,0.8,0,1.6,0.2,2.4c0.3,1.3,1.1,2,2.3,2
					c1.3,0,2.2-0.6,2.6-1.9c0.1-0.5,0.2-0.9,0.2-1.4c0-5.6,0-11.3,0-16.9c0-1-0.3-1.8-1.3-2.3c-1.1-0.5-1.6-3-0.9-3.9
					c0.3-0.4,1.1-0.5,1.6-0.5c4.1-0.1,8.2-0.1,12.2-0.2c0.7,0,1.4-0.1,2.2-0.1c0.8,0,1.3,0.4,1.4,1.3c0.3,1.9,0,2.3-1.5,3.5
					c-0.5,0.3-0.8,1.1-0.8,1.7c0.1,5.5,0.3,11,0.4,16.5c0,1.8,0.1,3.7,0.1,5.5c0,0.8-0.3,2.1-0.6,2.2c-1.1,0.2-2.3,0.1-3.3-0.2
					c-0.8-0.2-1.4-1-2.1-1.5c-0.6-0.4-1.2-0.7-1.8-1c-0.9-0.5-1.6-0.4-2.4,0.4c-3.6,3.6-9.7,3.8-14,0.4c-2.7-2.1-4.4-4.8-5.7-7.8
					c-2.4-5.4-3.1-11.2-2.8-17.1c0.3-5.6,1.3-11.1,4-16.1c1.5-2.8,3.3-5.4,6-7.3c3.9-2.8,8.1-3.2,12.4-0.8c1.2,0.7,1.5,0.7,2.1-0.6
					c0.6-1.2,1.6-1,2.6-1c0.9,0,1.4,0.5,1.6,1.4c0.9,3.9,1.8,7.9,2.7,11.8c0.2,1-0.3,1.5-1.2,1.7c-1.7,0.3-2.7-0.1-3.6-1.6
					c-1.2-2.1-2.4-4.2-3.7-6.3c-0.8-1.3-1.9-2.4-3.6-2.6c-2.1-0.3-3.7,0.6-4.3,2.6c-0.4,1.5-0.7,3.1-0.7,4.6
					C188.6,62.5,188.6,68.1,188.5,73.7C188.6,73.7,188.5,73.7,188.5,73.7z"/>
				<path id="XMLID_3029_" class="st2" d="M64.1,67c-0.8,3.6-1.5,7-2.2,10.5c-0.2,1.1,0.2,1.9,1.2,2.5c1.3,0.9,1.6,2.9,0.6,4.1
					c-0.3,0.4-1.2,0.4-1.7,0.3c-3.5-0.7-7-1.5-10.5-2.3c-1.6-0.4-3.3-0.8-4.9-1.1c-1-0.2-1.3-0.8-1.2-1.7c0.1-0.5,0.2-1,0.3-1.5
					c0.2-0.9,0.7-1.4,1.6-1.4c1.2,0.1,1.7-0.6,1.9-1.7c2.8-12.2,5.7-24.4,8.6-36.6c0.3-1.1,0-2-0.8-2.8c-1-0.9-1.1-3.5-0.1-4.3
					c0.3-0.3,1.1-0.3,1.7-0.1c5.3,1.1,10.6,2.3,15.9,3.5c3,0.7,5.7,1.8,8,3.9c2.9,2.7,4.4,6,4.7,9.8c0.3,4.5-0.5,8.8-2.6,12.9
					c-2.5,4.9-6.7,7-12,7.2c-2.2,0.1-4.5-0.5-6.8-0.8C65.2,67.2,64.7,67.1,64.1,67z M70.4,37.2c-1.9,8.7-3.7,17.3-5.5,26
					c3.4,1.3,5.1,0.5,6.1-2.8c0.1-0.3,0.2-0.5,0.2-0.8c0.8-3.9,1.6-7.7,2.4-11.6c0.4-1.9,0.8-3.8,1.1-5.8c0.4-2.8-0.7-4.3-3.5-4.8
					C71,37.3,70.8,37.3,70.4,37.2z"/>
				<path id="XMLID_3028_" class="st2" d="M256.3,65.7c0.5,4.5,1,8.9,1.5,13.4c0.3,2.5,0.6,5,0.8,7.5c0.1,1.4,0.7,2.3,2.1,2.7
					c1.4,0.4,2.4,2.7,1.8,4c-0.1,0.2-0.6,0.4-0.9,0.5c-3,0.3-6,0.6-8.9,1c-1.1,0.1-1.5-0.3-1.7-1.3c-0.2-1.4-0.3-2.6,1.3-3.3
					c0.8-0.3,1-1,0.9-1.9c-1-9.5-1.9-18.9-2.9-28.4c-0.3-2.7-0.6-5.4-0.8-8.1c-0.1-1.7-0.4-3.2-2.4-3.9c-0.9-0.3-1.3-2-1-3.5
					c0.2-1.1,1.1-1,1.9-1.1c2.3-0.2,4.7-0.4,7-0.8c0.8-0.1,1.1,0.1,1.5,0.8c4.1,6.9,8.3,13.8,12.5,20.7c0.2,0.4,0.5,0.7,0.9,1
					c-0.3-2.1-0.5-4.2-0.8-6.3c-0.5-3.4-0.9-6.8-1.4-10.2c-0.2-1.4-0.7-2.5-2.2-2.9c-1.2-0.3-2.2-2.7-1.6-3.8
					c0.1-0.2,0.4-0.4,0.7-0.4c2.8-0.4,5.6-0.8,8.4-1.1c0.4,0,1,0.4,1.2,0.8c0.8,1.7,0.5,2.6-0.9,3.8c-0.4,0.4-0.8,1.2-0.7,1.7
					c1.2,9.1,2.6,18.1,3.9,27.2c0.8,5.8,1.7,11.5,2.5,17.3c0,0.1,0,0.2,0,0.5c-1.8,0.3-3.6,0.6-5.4,0.7c-0.3,0-0.8-0.4-1-0.8
					c-5.1-8.2-10.2-16.5-15.3-24.8c-0.2-0.4-0.5-0.8-0.7-1.2C256.4,65.6,256.4,65.6,256.3,65.7z"/>
				<path id="XMLID_3025_" class="st2" d="M318.6,73.4c-2.8,0.6-5.5,1.1-8.3,1.7c0,1.5,0,3,0,4.5c0,1.2,0.9,1.7,1.9,2
					c1.3,0.4,2.4,2.1,2,3.5c-0.1,0.3-0.5,0.6-0.7,0.6c-2.9,0.6-5.9,1.1-8.8,1.7c-0.7,0.1-1.2-0.2-1.2-0.8c-0.1-0.9-0.3-2.2,0.2-2.8
					c1.6-1.9,1.3-4.1,1.3-6.3c-0.1-6.6-0.3-13.2-0.5-19.8c-0.1-5.2-0.3-10.3-0.5-15.5c0-1.2-0.5-2.1-1.8-2.5
					c-0.9-0.3-1.7-3.2-1.2-3.9c0.2-0.3,0.7-0.4,1-0.5c3.8-0.8,7.7-1.6,11.5-2.4c1.5-0.3,2.1,0,2.7,1.5c1.6,4,3.2,8,4.8,12
					c3.6,8.8,7.2,17.7,10.7,26.5c0.7,1.7,1.6,3.1,3.3,3.9c0.8,0.4,1.5,2.9,1,3.6c-0.2,0.3-0.6,0.5-0.9,0.5c-5,1.2-10,2.3-15.1,3.4
					c-0.3,0.1-0.7-0.1-0.9-0.3c-0.7-0.8-0.6-2.9,0.2-3.6c0.9-0.9,1.1-1.8,0.6-2.9c-0.2-0.5-0.4-1.1-0.6-1.7
					C319.2,75,318.9,74.2,318.6,73.4z M309,47c-0.1,0-0.1,0.1-0.2,0.1c0.4,8,0.8,16.1,1.2,24.2c2.6-0.5,4.9-1,7.4-1.5
					C314.6,62.1,311.8,54.6,309,47z"/>
				<path id="XMLID_3022_" class="st2" d="M96.9,79.6c-2.8-0.4-5.6-0.9-8.3-1.3c-0.5,1.5-1,2.9-1.5,4.3c-0.4,1.1,0.3,1.8,1.1,2.4
					c1.2,0.9,1.5,2.7,0.7,3.9c-0.2,0.2-0.7,0.4-1,0.4c-2.9-0.5-5.8-1-8.7-1.5c-0.7-0.1-0.9-0.5-0.9-1.2c0.1-1.2,0.5-2.3,1.6-2.9
					c1.2-0.7,1.8-1.7,2.3-3c4-11.6,8.1-23.2,12.2-34.8c0.5-1.4,0.7-2.6-0.7-3.6c-0.7-0.5-0.3-3.4,0.4-3.9c0.3-0.2,0.8-0.2,1.1-0.2
					c3.9,0.6,7.9,1.2,11.8,1.8c1,0.2,1.6,0.7,1.7,1.7c0.1,0.6,0.1,1.3,0.1,1.9c0.1,7,0.1,13.9,0.3,20.9c0.1,6.6,0.3,13.3,0.5,19.9
					c0,1.6,0.5,3,1.6,4.2c0.6,0.7,0.6,3.3-0.2,3.8c-0.4,0.3-1.1,0.3-1.6,0.2c-4.2-0.6-8.3-1.2-12.5-1.8c-0.4-0.1-0.9-0.1-1.3-0.2
					C95,90.4,94,90.1,94,89.8c0.1-1,0.2-2.6,0.7-2.8c3-1.2,2.3-3.6,2.4-5.8C97,80.8,96.9,80.3,96.9,79.6z M97.2,75.9
					c0-8.1,0-16.1,0-24.2c-2.5,7.7-5,15.3-7.5,23C92.2,75.1,94.6,75.5,97.2,75.9z"/>
				<path id="XMLID_3019_" class="st2" d="M155.9,85.9c-2.9-0.2-5.6-0.4-8.5-0.6c-0.4,1.5-0.8,3-1.1,4.4c-0.2,0.9,0.2,1.7,1,2.1
					c1.7,0.8,1.7,2.2,1.4,3.8c-0.1,0.3-0.6,0.8-0.9,0.8c-3-0.2-6.1-0.4-9.1-0.7c-0.3,0-0.7-0.6-0.8-1c-0.1-1.3,0.4-2.4,1.3-3.3
					c0.7-0.7,1.4-1.6,1.7-2.5c3.1-12.3,6-24.6,9-36.9c0.3-1.2,0.1-2.1-0.9-2.8c-0.8-0.6-1-3.4-0.3-4.1c0.2-0.2,0.7-0.3,1-0.3
					c4.1,0.2,8.2,0.5,12.3,0.7c1.1,0.1,1.6,0.8,1.7,1.8c0.3,2.7,0.6,5.5,1,8.2c1.1,9.4,2.2,18.9,3.3,28.3c0.2,1.9,0.5,3.8,0.7,5.7
					c0.2,1.5,0.9,2.8,2,3.8c0.6,0.5,0.7,3.2,0.2,3.7c-0.3,0.3-0.8,0.3-1.2,0.3c-5-0.2-10-0.4-15-0.6c-0.8,0-1.1-0.4-1.1-1.2
					c0-1.3,0.2-2.4,1.6-3c0.8-0.4,1.2-1.2,1.1-2.1C156.2,89,156.1,87.5,155.9,85.9z M153.6,58.3c-0.1,0-0.2,0-0.3,0
					c-1.7,7.7-3.4,15.5-5.2,23.4c2.5,0.2,4.9,0.3,7.5,0.5C155,74,154.3,66.2,153.6,58.3z"/>
				<path id="XMLID_3018_" class="st2" d="M134.8,47.3c-0.5,5-1,10.1-1.5,15.1c-0.8,7.9-1.5,15.7-2.3,23.6c-0.1,0.6-0.1,1.2-0.2,1.8
					c-0.2,1.2,0.3,2.1,1.3,2.7c1.1,0.7,1.5,3.4,0.6,4.2c-0.3,0.3-1,0.3-1.4,0.3c-3.7-0.3-7.3-0.7-11-1.1c-1.6-0.2-3.2-0.4-4.8-0.6
					c-0.8-0.1-1.1-0.5-1.1-1.3c0-2,0.3-2.5,2.2-3.3c0.5-0.2,1-1,1-1.5c0.6-4.5,1.1-9,1.7-13.6c1-8.5,2-17,3-25.5
					c0.1-0.7,0.2-1.5,0.2-2.2c-2-0.5-2.5-0.3-3.1,1.5c-0.5,1.5-0.9,3.1-1.4,4.6c-0.6,1.8-3.1,2.5-4.5,1.2c-0.2-0.2-0.4-0.7-0.3-1.1
					c0.5-3.2,1.1-6.4,1.8-9.7c0.2-1.2,1.3-1.1,2.2-1c2.6,0.3,5.2,0.7,7.9,1c5.2,0.6,10.5,1.1,15.7,1.6c1.5,0.1,1.6,0.2,1.6,1.7
					c0,3,0,5.9-0.1,8.9c0,0.9-0.2,1.7-1.5,1.7c-2.2,0-2.9-0.4-3.1-1.8c-0.3-2-0.6-3.9-1-5.9C136.7,47.7,136.1,47,134.8,47.3z"/>
				<path id="XMLID_3017_" class="st2" d="M283.1,88.5c-0.2-0.9,0-1.6,0.9-2.1c1.7-0.9,1.8-1.1,1.5-3c-1.9-12.2-3.8-24.4-5.7-36.6
					c-0.2-1.5-0.9-2.6-2.5-2.9c-1-0.2-1.8-3-1.2-3.8c0.2-0.2,0.6-0.4,0.9-0.5c5.1-0.9,10.2-1.7,15.2-2.5c0.9-0.1,1.4,0.1,1.5,1
					c0.1,0.5,0.1,1,0.2,1.5c0.2,0.8-0.1,1.3-0.8,1.6c-1.3,0.7-1.7,1.4-1.4,2.8c2.2,12.4,4.4,24.8,6.6,37.1c0.2,1.3,0.9,1.9,2,2.2
					c1.3,0.3,2.5,2.7,2,3.9c-0.1,0.3-0.7,0.5-1.1,0.6c-4.8,0.8-9.7,1.6-14.5,2.4c-0.7,0.1-1.3,0.2-2,0.3c-1.4,0.2-1.6,0.1-1.7-1.4
					C283.1,89.1,283.1,88.8,283.1,88.5z"/>
			</g>
			<g id="XMLID_2999_">
				<path id="XMLID_3005_" class="st3" d="M32.1,88.2C38,65.6,43.9,43.1,49.8,20.6c93.9,24,187.7,24,281.7,0
					c5.9,22.5,11.7,45,17.7,67.6C243.4,115.3,137.8,115.2,32.1,88.2z M211.6,69.7c0.2,2.7,0.3,5.3,0.7,8c0.7,5.2,2.4,10,5.7,14.2
					c5.8,7.4,16,6.3,20.9,1.7c2.9-2.7,4.4-6.1,5.5-9.8c1.7-6.2,1.4-12.5,0.4-18.8c-0.9-5.4-2.7-10.5-6.1-14.9
					c-3.6-4.7-8.3-7-14.3-5.5c-4.2,1-6.9,3.9-8.9,7.5C212.6,57.6,211.7,63.6,211.6,69.7z M188.5,73.7
					C188.5,73.7,188.6,73.7,188.5,73.7c0.1-5.6,0-11.3,0.1-16.9c0-1.5,0.3-3.1,0.7-4.6c0.6-2,2.2-2.9,4.3-2.6
					c1.6,0.2,2.7,1.3,3.6,2.6c1.3,2.1,2.5,4.2,3.7,6.3c0.9,1.5,1.9,1.9,3.6,1.6c0.9-0.2,1.4-0.6,1.2-1.7c-0.9-3.9-1.8-7.9-2.7-11.8
					c-0.2-0.8-0.7-1.4-1.6-1.4c-1,0-2-0.2-2.6,1c-0.6,1.3-0.9,1.3-2.1,0.6c-4.3-2.4-8.4-2.1-12.4,0.8c-2.6,1.9-4.5,4.5-6,7.3
					c-2.7,5-3.7,10.5-4,16.1c-0.3,5.9,0.4,11.7,2.8,17.1c1.4,3,3.1,5.8,5.7,7.8c4.4,3.3,10.5,3.2,14-0.4c0.8-0.8,1.5-0.9,2.4-0.4
					c0.6,0.3,1.2,0.6,1.8,1c0.7,0.5,1.3,1.3,2.1,1.5c1,0.3,2.3,0.4,3.3,0.2c0.4-0.1,0.6-1.4,0.6-2.2c0.1-1.8,0-3.7-0.1-5.5
					c-0.1-5.5-0.3-11-0.4-16.5c0-0.6,0.3-1.4,0.8-1.7c1.5-1.1,1.7-1.6,1.5-3.5c-0.1-0.9-0.6-1.3-1.4-1.3c-0.7,0-1.4,0-2.2,0.1
					c-4.1,0.1-8.2,0.1-12.2,0.2c-0.6,0-1.3,0.1-1.6,0.5c-0.8,0.9-0.2,3.4,0.9,3.9c1,0.5,1.3,1.3,1.3,2.3c0,5.6,0,11.3,0,16.9
					c0,0.5-0.1,1-0.2,1.4c-0.4,1.3-1.3,1.9-2.6,1.9c-1.2,0-2-0.6-2.3-2c-0.2-0.8-0.2-1.6-0.2-2.4C188.5,84.7,188.5,79.2,188.5,73.7z
					 M64.1,67c0.6,0.1,1.1,0.2,1.5,0.3c2.3,0.3,4.5,0.9,6.8,0.8c5.3-0.1,9.5-2.3,12-7.2c2.1-4.1,2.9-8.4,2.6-12.9
					c-0.3-3.8-1.8-7.2-4.7-9.8c-2.3-2.1-5-3.2-8-3.9c-5.3-1.2-10.6-2.4-15.9-3.5c-0.5-0.1-1.3-0.1-1.7,0.1c-1,0.9-0.9,3.4,0.1,4.3
					c0.8,0.8,1.1,1.7,0.8,2.8c-2.9,12.2-5.8,24.4-8.6,36.6c-0.3,1.1-0.7,1.7-1.9,1.7c-1,0-1.5,0.5-1.6,1.4c-0.1,0.5-0.2,1-0.3,1.5
					c-0.1,0.9,0.2,1.5,1.2,1.7c1.6,0.4,3.3,0.8,4.9,1.1c3.5,0.8,7,1.6,10.5,2.3c0.5,0.1,1.4,0,1.7-0.3c1.1-1.1,0.7-3.2-0.6-4.1
					c-0.9-0.6-1.4-1.4-1.2-2.5C62.6,74,63.3,70.6,64.1,67z M256.3,65.7c0.1,0,0.1,0,0.2-0.1c0.2,0.4,0.5,0.8,0.7,1.2
					c5.1,8.3,10.2,16.5,15.3,24.8c0.2,0.3,0.7,0.8,1,0.8c1.8-0.2,3.6-0.5,5.4-0.7c0-0.2,0-0.4,0-0.5c-0.8-5.8-1.6-11.5-2.5-17.3
					c-1.3-9.1-2.6-18.1-3.9-27.2c-0.1-0.5,0.3-1.3,0.7-1.7c1.4-1.2,1.7-2.1,0.9-3.8c-0.2-0.4-0.8-0.8-1.2-0.8
					c-2.8,0.3-5.6,0.7-8.4,1.1c-0.2,0-0.6,0.2-0.7,0.4c-0.6,1.1,0.3,3.5,1.6,3.8c1.5,0.4,2,1.4,2.2,2.9c0.4,3.4,0.9,6.8,1.4,10.2
					c0.3,2.1,0.5,4.2,0.8,6.3c-0.4-0.3-0.7-0.6-0.9-1c-4.2-6.9-8.3-13.8-12.5-20.7c-0.4-0.6-0.7-0.9-1.5-0.8c-2.3,0.3-4.7,0.5-7,0.8
					c-0.8,0.1-1.6,0-1.9,1.1c-0.3,1.4,0.1,3.2,1,3.5c1.9,0.7,2.2,2.2,2.4,3.9c0.2,2.7,0.5,5.4,0.8,8.1c1,9.5,1.9,18.9,2.9,28.4
					c0.1,0.9-0.1,1.6-0.9,1.9c-1.6,0.7-1.5,1.9-1.3,3.3c0.1,1,0.6,1.5,1.7,1.3c3-0.4,6-0.6,8.9-1c0.3,0,0.7-0.2,0.9-0.5
					c0.6-1.3-0.4-3.6-1.8-4c-1.4-0.4-2-1.3-2.1-2.7c-0.2-2.5-0.5-5-0.8-7.5C257.3,74.6,256.8,70.1,256.3,65.7z M318.6,73.4
					c0.4,0.9,0.7,1.6,1,2.4c0.2,0.6,0.4,1.1,0.6,1.7c0.5,1.1,0.3,2.1-0.6,2.9c-0.8,0.8-0.9,2.8-0.2,3.6c0.2,0.2,0.6,0.4,0.9,0.3
					c5-1.1,10.1-2.2,15.1-3.4c0.3-0.1,0.7-0.3,0.9-0.5c0.5-0.7-0.2-3.2-1-3.6c-1.7-0.8-2.7-2.2-3.3-3.9c-3.6-8.8-7.2-17.7-10.7-26.5
					c-1.6-4-3.2-8-4.8-12c-0.6-1.5-1.2-1.8-2.7-1.5c-3.8,0.8-7.7,1.6-11.5,2.4c-0.4,0.1-0.8,0.2-1,0.5c-0.5,0.7,0.3,3.6,1.2,3.9
					c1.3,0.4,1.7,1.3,1.8,2.5c0.2,5.2,0.3,10.3,0.5,15.5c0.2,6.6,0.3,13.2,0.5,19.8c0,2.2,0.3,4.3-1.3,6.3c-0.5,0.6-0.2,1.8-0.2,2.8
					c0,0.6,0.5,1,1.2,0.8c2.9-0.6,5.9-1.1,8.8-1.7c0.3-0.1,0.7-0.4,0.7-0.6c0.4-1.3-0.7-3.1-2-3.5c-1-0.3-1.9-0.8-1.9-2
					c0-1.5,0-2.9,0-4.5C313,74.5,315.8,74,318.6,73.4z M96.9,79.6c0.1,0.6,0.1,1.1,0.1,1.6c0,2.2,0.6,4.6-2.4,5.8
					c-0.6,0.2-0.7,1.8-0.7,2.8c0,0.2,1,0.6,1.6,0.8c0.4,0.1,0.9,0.1,1.3,0.2c4.2,0.6,8.3,1.2,12.5,1.8c0.5,0.1,1.2,0.1,1.6-0.2
					c0.7-0.5,0.8-3.1,0.2-3.8c-1.1-1.2-1.6-2.6-1.6-4.2c-0.2-6.6-0.4-13.3-0.5-19.9c-0.1-7-0.2-13.9-0.3-20.9c0-0.6,0-1.3-0.1-1.9
					c-0.1-1-0.7-1.5-1.7-1.7c-3.9-0.6-7.9-1.2-11.8-1.8c-0.4-0.1-0.8,0-1.1,0.2c-0.7,0.5-1,3.4-0.4,3.9c1.4,1.1,1.1,2.3,0.7,3.6
					c-4.1,11.6-8.1,23.2-12.2,34.8c-0.4,1.3-1.1,2.3-2.3,3c-1.1,0.6-1.5,1.7-1.6,2.9c0,0.6,0.1,1,0.9,1.2c2.9,0.5,5.8,1,8.7,1.5
					c0.3,0.1,0.8-0.1,1-0.4c0.8-1.2,0.5-3-0.7-3.9c-0.8-0.6-1.4-1.3-1.1-2.4c0.5-1.4,1-2.8,1.5-4.3C91.3,78.8,94.1,79.2,96.9,79.6z
					 M155.9,85.9c0.2,1.6,0.3,3.1,0.5,4.6c0.1,0.9-0.2,1.7-1.1,2.1c-1.4,0.6-1.6,1.7-1.6,3c0,0.8,0.3,1.2,1.1,1.2
					c5,0.2,10,0.4,15,0.6c0.4,0,0.9-0.1,1.2-0.3c0.6-0.5,0.5-3.2-0.2-3.7c-1.2-1-1.8-2.3-2-3.8c-0.3-1.9-0.5-3.8-0.7-5.7
					c-1.1-9.4-2.2-18.9-3.3-28.3c-0.3-2.7-0.6-5.5-1-8.2c-0.1-1-0.6-1.8-1.7-1.8c-4.1-0.3-8.2-0.5-12.3-0.7c-0.3,0-0.8,0.1-1,0.3
					c-0.7,0.7-0.5,3.5,0.3,4.1c1,0.8,1.2,1.6,0.9,2.8c-3,12.3-6,24.6-9,36.9c-0.2,0.9-1,1.8-1.7,2.5c-1,0.9-1.5,2-1.3,3.3
					c0,0.4,0.5,1,0.8,1c3,0.3,6,0.5,9.1,0.7c0.3,0,0.9-0.4,0.9-0.8c0.4-1.5,0.4-2.9-1.4-3.8c-0.8-0.4-1.2-1.1-1-2.1
					c0.3-1.5,0.7-2.9,1.1-4.4C150.3,85.5,153.1,85.7,155.9,85.9z M134.8,47.3c1.3-0.2,1.9,0.4,2.1,1.4c0.4,2,0.7,3.9,1,5.9
					c0.2,1.4,0.9,1.8,3.1,1.8c1.2,0,1.5-0.8,1.5-1.7c0-3,0.1-5.9,0.1-8.9c0-1.5-0.1-1.6-1.6-1.7c-5.2-0.5-10.5-1-15.7-1.6
					c-2.6-0.3-5.2-0.7-7.9-1c-0.9-0.1-2-0.2-2.2,1c-0.6,3.2-1.2,6.4-1.8,9.7c-0.1,0.3,0.1,0.8,0.3,1.1c1.4,1.3,4,0.7,4.5-1.2
					c0.5-1.5,0.9-3.1,1.4-4.6c0.6-1.8,1-2,3.1-1.5c-0.1,0.7-0.1,1.5-0.2,2.2c-1,8.5-2,17-3,25.5c-0.5,4.5-1.1,9-1.7,13.6
					c-0.1,0.6-0.6,1.3-1,1.5c-1.8,0.9-2.1,1.3-2.2,3.3c0,0.8,0.3,1.2,1.1,1.3c1.6,0.2,3.2,0.4,4.8,0.6c3.7,0.4,7.3,0.8,11,1.1
					c0.5,0,1.1,0,1.4-0.3c0.9-0.9,0.5-3.6-0.6-4.2c-1-0.6-1.5-1.5-1.3-2.7c0.1-0.6,0.1-1.2,0.2-1.8c0.8-7.9,1.5-15.7,2.3-23.6
					C133.9,57.3,134.3,52.3,134.8,47.3z M283.1,88.5c0,0.3,0,0.6,0.1,0.8c0.1,1.4,0.3,1.6,1.7,1.4c0.7-0.1,1.3-0.2,2-0.3
					c4.8-0.8,9.7-1.6,14.5-2.4c0.4-0.1,0.9-0.3,1.1-0.6c0.5-1.2-0.7-3.6-2-3.9c-1.2-0.3-1.8-0.9-2-2.2c-2.2-12.4-4.4-24.8-6.6-37.1
					c-0.3-1.4,0.1-2.2,1.4-2.8c0.8-0.4,1-0.9,0.8-1.6c-0.1-0.5-0.2-1-0.2-1.5c-0.1-0.9-0.6-1.2-1.5-1c-5.1,0.9-10.2,1.7-15.2,2.5
					c-0.3,0.1-0.7,0.2-0.9,0.5c-0.6,0.8,0.2,3.6,1.2,3.8c1.6,0.4,2.3,1.4,2.5,2.9c1.9,12.2,3.8,24.4,5.7,36.6c0.3,1.9,0.2,2.1-1.5,3
					C283.1,86.9,282.9,87.6,283.1,88.5z"/>
				<path id="XMLID_3004_" class="st3" d="M232.7,88.8c-0.2,1.1-0.3,2.3-0.6,3.3s-1.2,1.5-2.2,1.5c-1.1,0-1.9-0.6-2.3-1.5
					c-0.3-0.7-0.5-1.4-0.6-2.2c-0.8-12.7-1.5-25.4-2.2-38c0-0.9,0.1-1.8,0.4-2.7c0.4-1,1.2-1.5,2.3-1.4s1.9,0.7,2.1,1.7
					c0.3,1.9,0.6,3.8,0.7,5.7C231.1,66.4,231.8,77.5,232.7,88.8C232.6,88.8,232.7,88.8,232.7,88.8z"/>
				<path id="XMLID_3003_" class="st3" d="M70.4,37.2c0.4,0.1,0.6,0.1,0.8,0.1c2.8,0.5,3.9,2,3.5,4.8c-0.3,1.9-0.7,3.8-1.1,5.8
					c-0.8,3.9-1.6,7.7-2.4,11.6c-0.1,0.3-0.1,0.5-0.2,0.8c-1,3.3-2.7,4.1-6.1,2.8C66.7,54.6,68.6,45.9,70.4,37.2z"/>
				<path id="XMLID_3002_" class="st3" d="M309,47c2.8,7.5,5.6,15.1,8.4,22.7c-2.4,0.5-4.8,1-7.4,1.5c-0.4-8.1-0.8-16.2-1.2-24.2
					C308.9,47.1,309,47.1,309,47z"/>
				<path id="XMLID_3001_" class="st3" d="M97.2,75.9c-2.6-0.4-5-0.8-7.5-1.2c2.5-7.7,5-15.3,7.5-23C97.2,59.8,97.2,67.8,97.2,75.9z
					"/>
				<path id="XMLID_3000_" class="st3" d="M153.6,58.3c0.7,7.9,1.4,15.8,2.1,23.8c-2.5-0.2-4.9-0.3-7.5-0.5
					c1.7-7.9,3.5-15.6,5.2-23.4C153.5,58.3,153.6,58.3,153.6,58.3z"/>
			</g>
		</g>
		<g id="XMLID_2973_">
			<path id="XMLID_2995_" class="st1" d="M60.3,241.9c0.7-2.5,1.5-4.8,2.1-7.2c1.9-7.1,2.2-14.3,0.7-21.5c-0.6-2.8-2.8-4.5-5.6-4.4
				c-2.9,0.1-5.3,2.2-5.7,4.9c-0.4,2.8,2.2,5.6,5.2,5.7c0.6,0,1.1,0,1.7,0c0,1-0.6,1.4-1.4,1.7c-3.4,1.1-6.5,0.6-9.6-1
				c-5.6-3-8.3-7.9-9.3-13.9c-0.9-5.6,0.4-10.6,4.5-14.6c1.7-1.7,3.8-2.8,6.2-3.1c0.7-0.1,1.5,0.2,2.3,0.3c0,0.2,0,0.3,0,0.5
				c-0.3,0.2-0.6,0.4-1,0.6c-2.2,1.1-3.6,2.7-3.5,5.4c0.1,2.1,1.6,3.8,3.8,4.5c2.5,0.8,4.7,0.1,6.4-1.8c1.6-1.7,1.7-3.8,1-5.9
				c-2.5-8.1-7.2-14.7-13.8-20c-0.6-0.5-1.2-1-2.1-1.6c99-24.3,197.7-24.3,296.6,0c-0.9,0.7-1.6,1.3-2.3,1.9
				c-6.7,5.5-11.6,12.2-13.7,20.7c-0.6,2.6,0.5,5.1,3,6.3c2.5,1.3,5.6,0.7,7.3-1.2c2.1-2.5,1.5-6-1.5-7.8c-0.5-0.3-1.1-0.6-1.8-0.9
				c0.6-1,1.5-1,2.4-0.9c3.2,0.6,5.7,2.2,7.7,4.7c6.9,8.9,2.3,24.3-8.4,27.9c-2.3,0.8-4.6,0.8-7,0.3c-1.3-0.3-1.7-0.6-2.1-1.8
				c0.8,0,1.6,0,2.4-0.1c3-0.5,4.9-3,4.5-5.8c-0.3-2.8-3.2-5-6.1-4.8c-2.8,0.2-4.6,1.8-5.2,4.7c-1.6,7.4-1.1,14.7,0.9,21.9
				c0.6,2.1,1.3,4.2,1.9,6.4C234.1,220.7,147.2,220.4,60.3,241.9z M71.6,237.2c39.3-8.8,78.9-13.3,119-13.2
				c40.1,0,79.8,4.5,119,13.2c5.2-22.8,10.3-45.4,15.4-68.2c-89.7-20-179.2-20-268.9,0C61.3,191.8,66.5,214.4,71.6,237.2z"/>
			<g id="XMLID_2985_">
				<g id="XMLID_2994_">
					<path id="XMLID_41_" class="st4" d="M92.1,227c-0.9,0-1.6-0.5-2-1.5l-0.8-2c-0.7-1.6-1.3-3.2-2-4.7c-2.5-5.7-5-11.3-7.5-17
						s-5-11.3-7.5-17c-0.4-0.9-1-1.5-1.9-1.8c-0.6-0.2-1.1-0.8-1.6-1.7c-0.2-0.4-0.3-0.8-0.4-1.3c0-0.2-0.1-0.4-0.1-0.6
						c-0.1-0.5-0.1-0.9,0.1-1.2c0.2-0.3,0.6-0.6,1.1-0.7c0,0,11.4-2.5,13.9-3.1c0.2,0,0.3-0.1,0.5-0.1c0.5,0,1.3,0.2,1.5,1.3
						l0.1,0.4c0.3,1.2,0.6,2.5-0.4,3.8c-0.1,0.2-0.1,1,0.2,1.7c1,2.4,2,4.8,3,7.1c0.5,1.2,1,2.4,1.5,3.5l0.3,0.8
						c0.9,2.1,1.8,4.2,2.8,6.4c0-0.9,0-1.8,0-2.7c0-0.4,0-0.7,0-1.1c0-0.8-0.1-1.6,0-2.3c0.6-4.1-1-7.5-2.6-11.1
						c-0.3-0.6-0.5-1.1-0.8-1.7c-0.2-0.5-0.7-1-1.2-1.3c-1.5-0.9-1.7-2.3-1.8-3.5c0-0.2,0-0.5-0.1-0.7c-0.1-0.6,0.8-1.2,1.3-1.3
						c3.2-0.6,6.4-1.2,9.6-1.8l4.8-0.9c0.2,0,0.3,0,0.4,0c0.8,0,1.3,0.5,1.5,1.4v0.2c0.3,1.4,0.7,3.1-1.2,4.3
						c-0.3,0.2-0.3,0.4,0,1.1c0,0.1,0.1,0.2,0.1,0.3c0.9,2.4,1.8,4.8,2.7,7.1c0.7,1.7,1.3,3.4,2,5.2c0.6,1.6,1.2,3.2,1.8,4.8
						l0.3,0.7v-0.1c0-1.3,0-2.5,0-3.8c0.1-3.6,0.2-7.1,0.4-10.7l0.1-3.9c0.1-1.7-0.1-2-1.7-2.6c-0.8-0.3-1.4-1.3-1.7-2
						c-0.2-0.5-0.4-1.3-0.1-2c0.2-0.5,0.8-0.8,1.3-0.9c2.8-0.5,5.7-0.9,8.7-1.3h0.2c0.4,0,0.9,0.2,1.2,0.5c0.6,0.7,0.6,2,0.5,2.4
						c0,0.4-0.2,1.7-0.9,2.3c-0.7,0.6-1,1.3-1.1,2.5c-0.3,8.7-0.7,17.4-1,26.1l-0.4,10.3c-0.1,2.8-0.2,5.5-0.3,8.3
						c0,1.2-0.7,1.8-1.9,2h-0.2c-1.4,0.2-2.8,0.4-4.1,0.7c-0.2,0.1-0.4,0.1-0.6,0.1c-1.2,0-1.7-0.9-1.9-1.6
						c-1.7-4.6-3.5-9.3-5.2-13.9c-0.6-1.7-1.3-3.4-2-5l-0.3-0.7c0,0.7,0,1.4,0,2.1c0.1,4.4,0.1,8.8,0.2,13.2l0.1,5.7
						c0,1.5-0.6,2.3-2,2.4c-1.4,0.2-2.8,0.5-4,0.9C92.7,226.9,92.4,227,92.1,227z"/>
					<path id="XMLID_38_" d="M116.9,169.1c0.3,0,0.7,0.2,0.8,0.4c0.7,0.8,0.5,3.3-0.3,4c-0.9,0.8-1.2,1.7-1.2,2.8
						c-0.5,11.8-0.9,23.6-1.4,35.5c-0.1,3.1-0.3,6.1-0.3,9.2c0,1-0.6,1.4-1.5,1.5c-1.5,0.2-2.9,0.4-4.4,0.7c-0.2,0-0.4,0.1-0.5,0.1
						c-0.7,0-1.1-0.4-1.4-1.2c-1.7-4.6-3.5-9.3-5.2-13.9c-0.9-2.2-1.7-4.5-2.6-6.7c-0.1-0.2-0.2-0.5-0.3-0.7c-0.1,0-0.2,0-0.3,0.1
						c0,1.3,0,2.6,0,3.9c0.1,6.3,0.2,12.5,0.3,18.8c0,1.1-0.3,1.8-1.6,1.9c-1.4,0.2-2.8,0.5-4.1,0.9c-0.2,0.1-0.5,0.1-0.7,0.1
						c-0.7,0-1.2-0.4-1.5-1.2c-0.9-2.2-1.9-4.5-2.9-6.7c-5-11.3-10.1-22.6-15.1-33.9c-0.4-1-1.1-1.7-2.1-2.1c-0.6-0.2-1-0.9-1.3-1.5
						c-0.3-0.5-0.3-1.2-0.5-1.7c-0.2-0.7,0.1-1.1,0.8-1.3c4.6-1,9.3-2.1,13.9-3.1c0.1,0,0.3,0,0.4,0c0.5,0,0.9,0.3,1,0.9
						c0.3,1.3,0.8,2.5-0.2,3.8c-0.3,0.5-0.1,1.5,0.2,2.2c1.5,3.6,3,7.1,4.6,10.7c1.3,3,2.6,6.1,4.1,9.1c0-1.6,0-3.3,0-4.9
						c0-1.1-0.2-2.3,0-3.4c0.7-4.9-1.6-8.9-3.4-13.1c-0.3-0.6-0.9-1.2-1.5-1.5c-1.6-0.9-1.4-2.5-1.6-3.9c0-0.2,0.5-0.7,0.9-0.8
						c4.8-0.9,9.6-1.8,14.4-2.7c0.1,0,0.2,0,0.4,0c0.6,0,0.8,0.3,1,1c0.3,1.5,0.7,2.9-0.9,3.9c-0.8,0.5-0.3,1.4,0,2.1
						c1.5,4.1,3.1,8.2,4.7,12.3c0.9,2.3,1.7,4.6,2.6,6.9c0.1,0,0.3,0,0.4,0c0-1.8,0-3.7,0-5.5c0.1-4.9,0.3-9.7,0.5-14.6
						c0.1-1.9-0.3-2.4-2-3.1c-1-0.4-2-2.4-1.6-3.3c0.1-0.3,0.6-0.6,0.9-0.6C111.1,169.9,113.9,169.5,116.9,169.1L116.9,169.1
						 M116.9,168.1c-0.1,0-0.2,0-0.2,0c-2.9,0.4-5.9,0.9-8.7,1.3c-0.6,0.1-1.4,0.5-1.7,1.2c-0.4,0.8-0.1,1.8,0.1,2.4
						c0.4,0.9,1.1,1.9,2,2.3c1.3,0.5,1.4,0.6,1.4,2.1l-0.1,4c-0.1,3.6-0.2,7.1-0.4,10.7c0,0.4,0,0.8,0,1.1c-0.3-0.9-0.7-1.9-1-2.8
						c-0.7-1.7-1.3-3.5-2-5.2c-0.9-2.4-1.8-4.8-2.7-7.1c0-0.1-0.1-0.2-0.1-0.4c-0.1-0.2-0.2-0.4-0.2-0.5c2.1-1.4,1.7-3.4,1.4-4.8
						v-0.2c-0.3-1.5-1.4-1.8-2-1.8c-0.2,0-0.3,0-0.5,0.1c-1.6,0.3-3.2,0.6-4.8,0.9c-3.1,0.6-6.4,1.2-9.5,1.8
						c-0.7,0.1-1.8,0.9-1.7,1.9c0,0.2,0.1,0.5,0.1,0.7c0.1,1.2,0.3,2.9,2,3.9c0.4,0.3,0.9,0.7,1,1.1c0.2,0.6,0.5,1.1,0.8,1.7
						c1.6,3.6,3.1,6.9,2.6,10.9c-0.1,0.8-0.1,1.6,0,2.4c0,0.4,0,0.7,0,1.1c0,0.2,0,0.3,0,0.5c-0.6-1.4-1.3-2.9-1.9-4.3l-0.3-0.8
						c-0.5-1.2-1-2.4-1.5-3.6c-1-2.3-2-4.7-3-7.1c-0.2-0.5-0.3-1.1-0.2-1.3c1.1-1.5,0.7-3,0.4-4.2l-0.1-0.3c-0.3-1.1-1-1.7-2-1.7
						c-0.2,0-0.4,0-0.6,0.1c-2.5,0.6-5,1.1-7.5,1.7c-2.1,0.5-4.3,1-6.4,1.4c-0.6,0.1-1.1,0.4-1.4,0.9s-0.3,1-0.2,1.6
						c0,0.2,0.1,0.3,0.1,0.5c0.1,0.4,0.2,1,0.4,1.4c0.6,1,1.2,1.6,1.8,1.9c0.8,0.3,1.2,0.8,1.6,1.6c2.5,5.7,5.1,11.4,7.6,17.1
						c2.5,5.6,5,11.2,7.5,16.8c0.7,1.6,1.4,3.2,2,4.7c0.3,0.7,0.6,1.3,0.8,2c0.6,1.5,1.7,1.8,2.4,1.8c0.3,0,0.6,0,0.9-0.1
						c1.3-0.3,2.6-0.7,4-0.8c1.1-0.1,2.5-0.8,2.5-2.9l-0.1-5.2c-0.1-4.4-0.1-8.7-0.2-13.1c0.4,1.1,0.9,2.2,1.3,3.3
						c1.5,3.8,3.4,8.9,5.2,13.9c0.5,1.3,1.3,1.9,2.4,1.9c0.2,0,0.5,0,0.7-0.1c1.3-0.3,2.7-0.5,4-0.7h0.3c1.9-0.3,2.3-1.5,2.3-2.5
						c0.1-2.8,0.2-5.6,0.3-8.3v-0.9l0.4-9.6c0.4-8.6,0.7-17.2,1-25.9c0-1,0.3-1.6,0.9-2.1c0.8-0.7,1-2.1,1-2.7s0-2-0.7-2.8
						C118.1,168.4,117.5,168.1,116.9,168.1L116.9,168.1z"/>
				</g>
				<g id="XMLID_2991_">
					<path id="XMLID_57_" class="st4" d="M269.5,222.6c-0.1,0-0.2,0-0.2,0c-3.6-0.5-6.5-1-9.1-1.4c-1.4-0.2-2.1-1.4-2.4-2.5
						c-0.7-1.8-0.5-3.7-0.2-5.7l0.1-0.7c0.5-3.4,1-6.9,1.5-10.4c0.2-1.5,0-2.4-0.5-3.1c-0.5-0.6-1.5-1-3-1.1c-0.1,0-0.2,0-0.4,0
						l-0.1,1c-0.2,1.2-0.3,2.4-0.5,3.6l-0.5,3.9c-0.3,2.1-0.6,4.3-0.8,6.4c-0.1,1-0.2,1.6,0.6,2.3c0.6,0.6,0.7,1.7,0.7,2.2
						c0,0.9-0.2,2-0.8,2.6c-0.3,0.3-0.8,0.4-1.3,0.4c-0.1,0-0.2,0-0.2,0c-3.1-0.3-6.2-0.7-9.3-1l-4.2-0.5c-1.1-0.1-1.6-0.8-1.6-1.8
						c0-0.8,0.1-1.6,0.3-2.4c0.1-0.5,0.6-1.1,1.2-1.3c1-0.4,1.6-1.1,1.7-2.3l2.7-25.8l0.3-2.8c0.2-2.4,0.5-4.9,0.8-7.3
						c0.2-2,0.1-3-1.5-3.6c-0.8-0.3-0.9-2-0.8-2.3c0.1-1.7,0.5-2.8,2.3-2.8c0.3,0,0.6,0,0.9,0.1c1.8,0.2,3.6,0.4,5.4,0.6
						c4.6,0.5,9.4,1,14.1,1.9c5.3,1,9.5,4.2,11.4,8.7s1.4,9.8-1.5,14.1c-2.1,3.2-5.6,4.4-8.6,5.1c0,0,0,0,0.1,0
						c4.8,2.4,6.9,6.5,6.1,11.8c-0.2,1.1-0.3,2.1-0.5,3.2c-0.3,1.4-0.5,2.9-0.7,4.4c-0.1,0.5,0.1,1.2,0.4,1.8c0.6,1,0.7,3.5-0.1,4.4
						C270.5,222.4,269.9,222.6,269.5,222.6z M255.8,192.8c0.8,0.2,1.4,0.3,1.9,0.3l0,0c1.3,0,2.2-0.6,3.1-3.6v-0.1
						c0.2-1.3,0.4-2.6,0.6-3.8c0.4-2.9,0.9-5.9,1.3-8.9c0.3-2.3-0.7-3.6-3.2-4c-0.3,0-0.6-0.1-0.9-0.1h-0.1L255.8,192.8z"/>
					<path id="XMLID_52_" d="M243.8,166.6c0.3,0,0.5,0,0.9,0.1c6.5,0.8,13.1,1.3,19.5,2.5c11.2,2.1,15.2,13.5,9.6,22.1
						c-2,3.1-5.3,4.3-8.7,4.9c-0.2,0-0.4,0.1-0.9,0.2c0.7,0.3,1,0.5,1.3,0.7c4.6,2.3,6.6,6.2,5.8,11.2c-0.4,2.5-0.9,5-1.2,7.6
						c-0.1,0.7,0.1,1.5,0.5,2.1c0.5,0.9,0.6,3.1-0.1,3.9c-0.2,0.2-0.6,0.3-0.9,0.3c-0.1,0-0.1,0-0.2,0c-3-0.4-6.1-0.9-9.1-1.4
						c-1.2-0.2-1.7-1.2-2.1-2.1c-0.7-1.8-0.5-3.6-0.2-5.4c0.5-3.7,1.1-7.4,1.6-11.2c0.4-3.2-0.7-4.5-3.9-4.8c-0.2,0-0.5,0-0.9,0
						c-0.2,1.7-0.5,3.4-0.7,5.1c-0.5,3.4-0.9,6.9-1.4,10.3c-0.1,1-0.2,1.9,0.7,2.7c0.8,0.7,0.6,3.3-0.1,4c-0.2,0.2-0.7,0.3-1,0.3
						c-0.1,0-0.1,0-0.2,0c-4.5-0.5-9-1-13.5-1.5c-0.8-0.1-1.2-0.5-1.2-1.3s0.1-1.5,0.2-2.3c0.1-0.4,0.5-0.9,0.8-1
						c1.3-0.5,1.9-1.4,2-2.7c0.9-8.6,1.8-17.2,2.7-25.8c0.4-3.4,0.7-6.8,1.1-10.1c0.2-1.8,0.2-3.3-1.8-4.1c-0.4-0.1-0.6-1.2-0.5-1.8
						C242.1,167.1,242.5,166.6,243.8,166.6 M257.7,193.5c1.7,0,2.7-0.9,3.5-3.9c0-0.1,0-0.2,0-0.2c0.6-4.2,1.3-8.4,1.8-12.7
						c0.3-2.7-1-4.1-3.6-4.5c-0.4-0.1-0.9-0.1-1.5-0.2c-0.9,7.1-1.9,14.1-2.8,21.2C256.2,193.4,257,193.5,257.7,193.5 M243.8,165.6
						L243.8,165.6c-2.5,0-2.7,2.1-2.8,3.2c0,0-0.1,2.3,1.2,2.8s1.4,1.2,1.2,3.1c-0.3,2.5-0.6,5-0.8,7.4c-0.1,0.9-0.2,1.8-0.3,2.7
						l-1.1,10.7c-0.5,5-1,10.1-1.6,15.1c-0.1,1-0.5,1.6-1.4,1.9c-0.7,0.3-1.3,1-1.5,1.7c-0.2,0.8-0.2,1.7-0.3,2.5
						c0,1.3,0.7,2.1,2,2.3c1.4,0.2,2.8,0.3,4.2,0.5c3.1,0.4,6.2,0.7,9.3,1c0.1,0,0.2,0,0.3,0c0.6,0,1.3-0.2,1.7-0.5
						c0.9-0.8,1-2.4,1-2.9c0-0.7-0.1-1.9-0.9-2.6c-0.5-0.4-0.5-0.8-0.4-1.8c0.3-2.1,0.6-4.3,0.8-6.4c0.2-1.3,0.3-2.6,0.5-3.9
						c0.2-1.2,0.3-2.3,0.5-3.5l0.1-0.7c1.3,0.1,2.2,0.4,2.6,0.9c0.4,0.5,0.5,1.4,0.4,2.7c-0.4,3.4-1,6.9-1.5,10.3l-0.1,0.8
						c-0.3,2.1-0.5,4,0.2,5.9c0.4,1.1,1.1,2.5,2.8,2.8c2.7,0.5,5.6,0.9,9.1,1.5c0.1,0,0.2,0,0.3,0c0.5,0,1.2-0.2,1.6-0.7
						c1.1-1.2,0.9-3.8,0.2-5c-0.3-0.5-0.4-1.1-0.4-1.5c0.2-1.5,0.5-2.9,0.7-4.4c0.2-1,0.4-2.1,0.5-3.2c0.8-5.1-1-9.1-5.3-11.7
						c2.7-0.7,5.7-2,7.6-5c2.9-4.5,3.5-9.9,1.5-14.6s-6.3-8-11.8-9c-4.7-0.9-9.5-1.4-14.1-1.9c-1.8-0.2-3.6-0.4-5.4-0.6
						C244.4,165.6,244.1,165.6,243.8,165.6L243.8,165.6z M256.4,192.4l2.5-19.3c0.2,0,0.3,0,0.5,0.1c2.2,0.3,3,1.4,2.8,3.4
						c-0.4,3-0.8,6-1.3,8.9c-0.2,1.3-0.4,2.5-0.6,3.8v0.1v0.1c-0.8,2.9-1.7,3.2-2.6,3.2C257.4,192.5,256.9,192.5,256.4,192.4
						L256.4,192.4z"/>
				</g>
				<g id="XMLID_2990_">
					<path id="XMLID_36_" class="st4" d="M296.7,228.1c-1.3-0.3-2.5-0.5-3.7-0.9c-0.7-0.2-0.9-1.3-1-1.5c-0.6-3-1.3-6-1.9-9
						c-0.8-3.6-1.5-7.1-2.3-10.7c-0.5-2.2-1-4.3-1.5-6.4c-0.1-0.6-0.3-1.1-0.4-1.7l-2.8,14.6l-0.2,1.3c-0.2,1.1-0.4,2.2-0.7,3.3
						c-0.2,1,0,1.7,0.9,2.3c0.7,0.5,1.1,1.4,1.2,2.5c0.1,1-0.1,2-0.7,2.7c-0.3,0.4-0.9,0.4-1.1,0.4c-0.1,0-0.2,0-0.3,0
						c-3-0.5-5.7-1-8.4-1.6c-0.6-0.1-1.3-1-1.2-1.6c0-1.3,0-3.4,2.6-3.9c0.2,0,0.6-0.6,0.7-1c1.3-7.2,2.7-14.5,4-21.8
						c0.9-5.1,1.9-10.2,2.8-15.4c0.2-1.2-0.1-2-1-2.6c-0.7-0.5-1.1-1.4-1.1-2.5c-0.1-1.1,0.3-2,0.9-2.6c0.4-0.3,1-0.5,1.4-0.5
						c0.1,0,0.2,0,0.4,0c3,0.5,6.1,1.1,9,1.7c0.5,0.1,1,0.7,1.2,1.2c1.7,6.9,3.3,13.7,5,20.6l0.4,1.7c0.1,0.5,0.2,1,0.3,1.5
						c0.2-0.9,0.4-1.9,0.6-2.8c0.8-3.8,1.7-7.7,2.6-11.5c0.4-1.8,0.1-2.7-1.1-3.5c-0.5-0.3-0.9-1.1-1-2c-0.1-0.8,0-2,0.7-2.7
						c0.3-0.4,0.9-0.4,1.1-0.4c0.1,0,0.2,0,0.3,0c3.4,0.7,6.8,1.5,9.4,2.1c0.3,0.1,0.7,0.3,1,0.6c0.6,0.8,0.3,2.1-0.1,2.9
						c-0.4,1-1.1,1.6-1.8,1.7c-1.1,0.1-1.5,0.5-1.8,1.8c-2.8,12.1-5.7,24.3-8.5,36.4l-1.4,6c-0.1,0.3-0.1,0.5-0.2,0.8l-0.3,0.9
						L296.7,228.1z"/>
					<path id="XMLID_33_" d="M282.9,172.1c0.1,0,0.2,0,0.3,0c3,0.5,6,1.1,8.9,1.7c0.3,0.1,0.7,0.5,0.8,0.8
						c1.8,7.4,3.6,14.8,5.4,22.2c0.3,1,0.5,2.1,0.7,3.1c0.1,0,0.1,0,0.2,0c1.2-5.3,2.3-10.7,3.6-16c0.4-1.7,0.3-3-1.3-4
						c-1-0.6-1.1-3.1-0.3-3.9c0.1-0.2,0.5-0.2,0.7-0.2c0.1,0,0.2,0,0.2,0c3.1,0.7,6.2,1.4,9.3,2.1c0.3,0.1,0.5,0.2,0.7,0.4
						c0.7,1-0.3,3.7-1.5,3.8c-1.4,0.1-2,0.9-2.3,2.2c-3.3,14.1-6.6,28.2-9.9,42.3c-0.1,0.4-0.2,0.8-0.3,1.2
						c-1.7-0.4-3.3-0.7-4.9-1.1c-0.3-0.1-0.5-0.7-0.6-1.1c-1.4-6.6-2.8-13.1-4.2-19.7c-0.6-3-1.4-6-2.1-9c-0.1-0.3-0.2-0.6-0.4-1.2
						c-1.1,5.8-2.2,11.2-3.2,16.6c-0.3,1.5-0.6,3.1-0.9,4.6c-0.3,1.2,0.1,2.1,1,2.8c1.2,0.9,1.4,3.3,0.5,4.4
						c-0.1,0.2-0.5,0.2-0.7,0.2c-0.1,0-0.2,0-0.2,0c-2.8-0.5-5.6-1-8.4-1.6c-0.4-0.1-0.9-0.7-0.8-1.1c0-1.5,0.2-3,2.2-3.4
						c0.4-0.1,1-0.8,1.1-1.4c2.3-12.4,4.5-24.7,6.8-37.1c0.2-1.3,0-2.3-1.2-3.1c-1.2-0.9-1.3-3.3-0.2-4.3
						C282.1,172.2,282.5,172.1,282.9,172.1 M282.9,171.1c-0.7,0-1.3,0.2-1.7,0.6c-0.7,0.7-1.1,1.8-1.1,3c0.1,1.2,0.6,2.3,1.3,2.8
						c0.8,0.6,1,1.1,0.8,2.1c-0.9,5.1-1.9,10.2-2.8,15.3c-1.3,7.2-2.7,14.6-4,21.8c0,0.2-0.2,0.5-0.4,0.6c-2.9,0.6-2.9,3.1-2.9,4.4
						c0,0.8,0.7,1.9,1.6,2.1c2.7,0.6,5.4,1.1,8.4,1.6c0.1,0,0.3,0,0.4,0c0.3,0,1-0.1,1.5-0.6c0.6-0.7,0.9-1.8,0.8-3
						c-0.1-1.2-0.7-2.2-1.4-2.8c-0.7-0.5-0.8-1-0.7-1.8c0.2-1.1,0.5-2.2,0.7-3.3c0.1-0.4,0.2-0.9,0.2-1.3l2.3-11.9l0.1-0.4
						c0.5,1.9,1,3.9,1.4,5.9c0.8,3.6,1.5,7.2,2.3,10.8c0.6,3,1.2,5.9,1.9,8.9c0.1,0.4,0.4,1.6,1.3,1.9c1.2,0.3,2.5,0.6,3.7,0.9
						c0.4,0.1,0.9,0.2,1.3,0.3l0.9,0.2l0.3-0.9c0-0.1,0.1-0.3,0.1-0.4c0.1-0.3,0.2-0.6,0.2-0.8l1.5-6.6c2.7-11.7,5.6-23.9,8.4-35.8
						c0.3-1.1,0.6-1.3,1.4-1.4c0.9-0.1,1.7-0.8,2.2-1.9c0.5-1,0.7-2.5,0-3.4c-0.3-0.4-0.8-0.7-1.3-0.8c-2.6-0.6-6-1.4-9.4-2.1
						c-0.1,0-0.3,0-0.4,0c-0.2,0-1,0-1.4,0.5c-0.8,0.8-0.9,2.1-0.8,3.1c0.1,1.1,0.6,1.9,1.3,2.3c1.1,0.7,1.3,1.4,0.9,2.9
						c-0.9,3.8-1.8,7.8-2.6,11.5c0,0.2-0.1,0.4-0.1,0.6l-0.1-0.3c-1.7-7-3.4-14.2-5.1-21.2c-0.2-0.6-0.8-1.4-1.5-1.6
						c-2.9-0.6-5.9-1.2-9-1.7C283.2,171.1,283,171.1,282.9,171.1L282.9,171.1z"/>
				</g>
				<g id="XMLID_2989_">
					<path id="XMLID_31_" class="st4" d="M127.2,220.2c-0.9,0-1.2-0.6-1.3-1c-0.4-1.4-0.9-3.1,0.6-3.9c1.4-0.8,1.6-1.8,1.3-3.7
						c-1.1-8-2.1-15.9-3.2-23.9l-1.1-8.7c-0.1-0.5-0.1-0.9-0.2-1.4c-0.1-1-0.3-1.9-0.4-2.9c-0.1-0.8-0.4-1.1-1.2-1.4
						c-2-0.6-3-2.4-2.5-4.3c0.2-0.6,1-1,1.5-1.1c3.3-0.5,7.2-1,11.2-1.4c2.4-0.3,4.8-0.5,7.2-0.7c1.3-0.1,2.7-0.3,4-0.4
						c0.4,0,0.7-0.1,1-0.1c1.5,0,1.8,0.8,2.2,2.2c0.8,2.5,1.6,5,2.3,7.6c0.2,0.6,0.3,1.3,0,1.8c-0.4,0.5-1.1,0.7-1.8,0.7
						c-0.6,0.1-1,0.1-1.4,0.1c-1.8,0-2.4-0.8-3.4-2.8c-0.3-0.6-0.6-1.2-0.9-1.8c-1.1-1.9-1.6-2.3-2.6-2.3c-0.4,0-0.9,0.1-1.7,0.2
						l1.8,17c0.1,0,0.3,0,0.4,0c0.7,0,1.3-0.1,1.8-0.3c0.3-0.1,0.7-0.6,0.8-1.1c0.1-0.4,0.2-0.8,0.2-1.3s0.1-1,0.2-1.5
						c0.2-0.6,0.9-1.4,1.6-1.4c0.4,0,0.8,0,1.1-0.1c0.5,0,0.8-0.1,1.1-0.1c1.5,0,1.6,0.9,1.8,2.7c0,0,0.6,6.7,0.8,9.8
						c0.2,1.8-0.2,2.3-2.1,2.5c-0.6,0.1-0.9,0.1-1.2,0.1c-1.5,0-1.8-0.8-2.3-2.2c-0.8-2.3-1-2.5-1.7-2.5c-0.5,0-1.1,0.1-2.1,0.3
						l2.2,20.7c0,0,0,0,0.1,0c2.3,0,2.8-0.4,3.4-2.8c0.2-0.6,0.3-1.2,0.4-1.8c0.2-0.8,0.4-1.6,0.6-2.3c0.4-1.6,1.8-2.7,3.4-2.7
						c0.4,0,0.9,0.1,1.3,0.3c0.6,0.3,1.2,1.2,1.2,1.9c-0.1,2.1-0.3,4.1-0.5,6.2c-0.1,1.1-0.2,2.3-0.3,3.4c-0.1,1.1-0.7,1.7-1.9,1.9
						c-3.9,0.4-7.8,0.9-11.6,1.3c-3.1,0.3-6.2,0.7-9.3,1c-0.1,0-0.2,0-0.3,0C127.7,220.2,127.4,220.2,127.2,220.2z"/>
					<path id="XMLID_28_" d="M144.1,165.9c1,0,1.3,0.4,1.8,1.8c0.8,2.5,1.6,5,2.3,7.5c0.4,1.4,0.1,1.8-1.3,1.9
						c-0.5,0.1-1,0.1-1.4,0.1c-1.5,0-2-0.5-2.9-2.5c-0.3-0.6-0.6-1.2-1-1.8c-1.1-1.8-1.7-2.5-3.1-2.5c-0.6,0-1.3,0.1-2.2,0.3
						c0.6,6,1.3,11.9,1.9,18c1-0.1,2-0.1,2.9-0.4c0.5-0.2,1-0.9,1.2-1.5c0.3-0.9,0.2-1.9,0.5-2.8c0.1-0.4,0.7-1,1.2-1.1
						c1-0.1,1.7-0.1,2.2-0.1c1.2,0,1.1,0.5,1.3,3c0.3,3,0.5,6.1,0.8,9.1c0.1,1.6,0,1.8-1.6,2c-0.5,0.1-0.8,0.1-1.2,0.1
						c-1.1,0-1.3-0.4-1.9-1.9c-0.7-2.1-1-2.9-2.2-2.9c-0.6,0-1.4,0.2-2.6,0.5c0.8,7.2,1.5,14.4,2.3,21.6c0.2,0,0.4,0,0.5,0
						c2.6,0,3.2-0.6,3.9-3.1c0.4-1.4,0.6-2.8,1-4.2c0.4-1.4,1.6-2.3,2.9-2.3c0.4,0,0.7,0.1,1.1,0.2c0.4,0.2,0.9,1,0.9,1.5
						c-0.2,3.2-0.5,6.4-0.8,9.6c-0.1,0.9-0.5,1.3-1.4,1.4c-7,0.8-14,1.6-21,2.3c-0.3,0-0.6,0.1-0.9,0.1c-0.4,0-0.7-0.1-0.9-0.7
						c-0.5-1.6-0.7-2.7,0.3-3.3c1.8-1,1.8-2.4,1.6-4.2c-1.5-10.8-2.9-21.7-4.3-32.6c-0.2-1.4-0.5-2.8-0.6-4.3
						c-0.1-1.1-0.6-1.5-1.6-1.8c-1.7-0.5-2.6-2-2.1-3.7c0.1-0.3,0.7-0.7,1-0.7c3.7-0.5,7.4-1,11.2-1.4c3.7-0.4,7.5-0.7,11.2-1.1
						C143.5,165.9,143.8,165.9,144.1,165.9 M144.1,164.9c-0.3,0-0.6,0-1,0.1c-1.3,0.1-2.7,0.3-4,0.4c-2.4,0.2-4.8,0.5-7.2,0.7
						c-4,0.4-7.9,1-11.2,1.4c-0.6,0.1-1.6,0.6-1.9,1.4c-0.6,2.2,0.6,4.3,2.8,4.9c0.7,0.2,0.8,0.4,0.8,0.9c0.1,1,0.2,2,0.4,3
						c0.1,0.5,0.1,0.9,0.2,1.4c0.4,2.9,0.8,5.7,1.1,8.6c1,7.9,2.1,16,3.2,24c0.2,1.8,0.1,2.5-1,3.2c-1.9,1-1.3,3-0.8,4.5
						c0.3,0.9,0.9,1.4,1.8,1.4c0.3,0,0.5,0,0.7-0.1c0.1,0,0.2,0,0.3,0c3.1-0.3,6.2-0.7,9.4-1c3.9-0.4,7.7-0.9,11.6-1.3
						c1.4-0.2,2.2-0.9,2.3-2.3c0.1-1.1,0.2-2.3,0.3-3.4c0.2-2,0.4-4.1,0.5-6.2c0.1-0.9-0.7-2.1-1.5-2.4c-0.5-0.2-1-0.3-1.5-0.3
						c-1.8,0-3.4,1.2-3.9,3c-0.2,0.8-0.4,1.6-0.6,2.4c-0.1,0.6-0.3,1.2-0.4,1.8c-0.5,2.1-0.8,2.4-2.6,2.4l-1.1-10.2l-1-9.7
						c0.7-0.1,1.2-0.2,1.5-0.2c0.4,0,0.5,0,1.3,2.2c0.5,1.5,1,2.6,2.8,2.6c0.3,0,0.7,0,1.3-0.1c2.1-0.3,2.7-0.9,2.5-3
						c-0.3-3-0.5-6.1-0.8-9.1l-0.1-0.7c-0.2-1.9-0.3-3.2-2.3-3.2c-0.3,0-0.7,0-1.2,0.1c-0.3,0-0.7,0-1.1,0.1c-0.9,0.1-1.8,1-2.1,1.8
						c-0.2,0.5-0.2,1.1-0.3,1.6c0,0.4-0.1,0.9-0.2,1.2c-0.1,0.4-0.4,0.7-0.5,0.8c-0.4,0.2-1,0.2-1.6,0.3l-1.2-11.2l-0.5-4.8
						c0.5-0.1,0.8-0.1,1.1-0.1c0.7,0,1.1,0.2,2.2,2c0.3,0.6,0.6,1.1,0.9,1.7c1,1.9,1.6,3,3.8,3c0.4,0,0.8,0,1.4-0.1
						c0.8-0.1,1.7-0.2,2.1-1c0.5-0.7,0.3-1.5,0.1-2.3c-0.8-2.6-1.6-5.2-2.3-7.6C146.3,166,145.8,164.9,144.1,164.9L144.1,164.9z"/>
				</g>
				<g id="XMLID_2988_">
					<path id="XMLID_26_" class="st4" d="M232.4,217.8c-0.1,0-0.2,0-0.4,0l-1.8-0.1c-2.7-0.2-5.5-0.5-8.3-0.6
						c-1.7-0.1-3.5-0.2-5.2-0.3c-1.8-0.1-3.6-0.2-5.3-0.3h-0.2h-0.5c-0.4,0-1.6,0-1.7-1.4V215c-0.1-1.7-0.2-3,1.6-3.6
						c1.1-0.4,1.5-1.1,1.6-2.6c0.5-11.2,1-23.2,1.7-37.6c0-1-0.2-1.4-1.1-1.8c-0.8-0.3-1.4-1.1-1.7-2.1s-0.2-1.9,0.3-2.7
						c0.4-0.6,1.5-0.6,1.6-0.6c3.1,0.1,6,0.2,9,0.4c4.2,0.3,8.7,0.6,13.6,1c2,0.2,2.4,0.5,2.6,2.5c0.2,1.6,0.4,3.2,0.6,4.8
						c0.1,1.1,0.3,2.3,0.4,3.4c0.1,0.6,0,1.1-0.3,1.5c-0.3,0.3-0.8,0.5-1.4,0.5c-0.2,0-0.3,0-0.5,0c-2.5,0-3.5-0.8-4.3-3.4
						c-0.2-0.8-0.5-1.6-0.8-2.4c-0.8-2-1.3-2.4-2.9-2.4c-0.3,0-0.6,0-0.9,0l-1.2,17c0.1,0,0.3,0,0.4,0.1c0.4,0.1,0.8,0.1,1.2,0.1
						c0.2,0,0.4,0,0.6-0.1c0.3-0.1,0.9-0.6,1.1-1.1c0.2-0.4,0.3-0.8,0.4-1.2c0.1-0.5,0.2-0.9,0.5-1.4s1.1-1.1,1.7-1.1h0.6
						c1.5,0.1,2.3,0.2,2.7,0.7s0.4,1.2,0.2,2.7v0.5c-0.2,1.8-0.3,3.7-0.5,5.5c-0.1,1.1-0.2,2.3-0.3,3.4v0.2c-0.1,0.8-0.2,2-1.8,2.1
						c-0.2,0-0.3,0-0.5,0c-1.8,0-2.8-0.3-3.2-2.1c0-0.1,0-0.3-0.1-0.4c0-0.1,0-0.2,0-0.3c-0.1-0.3-0.1-0.6-0.1-0.8
						c-0.3-1.8-0.3-1.9-3.2-1.9l-1.5,20.7c0.5,0.2,1,0.3,1.4,0.3c1,0,1.7-0.5,2.3-1.8c0.4-0.7,0.7-1.5,1-2.2
						c0.4-0.8,0.7-1.6,1.1-2.4c0.6-1.2,1.8-2,3.2-2c0.6,0,1.3,0.2,1.8,0.5c0.6,0.4,1,1.4,0.9,2.1c-0.4,1.9-1,3.8-1.4,5.6
						c-0.3,1.3-0.7,2.5-1,3.8C234,217.3,233.4,217.8,232.4,217.8z"/>
					<path id="XMLID_23_" d="M212.9,164.4L212.9,164.4c3,0.1,6,0.2,8.9,0.4c4.5,0.3,9.1,0.6,13.6,1c1.8,0.2,1.9,0.3,2.2,2.1
						c0.4,2.7,0.7,5.5,1,8.2c0.1,1-0.3,1.4-1.2,1.4c-0.2,0-0.3,0-0.4,0c-2.3,0-3.1-0.7-3.8-3.1c-0.2-0.8-0.5-1.6-0.8-2.4
						c-0.8-2.1-1.5-2.8-3.3-2.8c-0.4,0-0.8,0-1.4,0.1c-0.4,6-0.9,11.9-1.3,17.9c0.7,0.1,1.5,0.2,2.2,0.2c0.2,0,0.5,0,0.7-0.1
						c0.6-0.1,1.2-0.8,1.5-1.3c0.4-0.8,0.5-1.8,0.9-2.6c0.2-0.4,0.8-0.9,1.3-0.9l0,0c3.5,0.3,3.3,0.1,3,3.3c-0.3,3-0.5,6-0.8,9
						c-0.1,0.9,0,1.8-1.3,1.8c-0.2,0-0.3,0-0.5,0c-1.8,0-2.4-0.4-2.7-1.7c0-0.2-0.1-0.5-0.1-0.7c-0.5-3.1-0.1-3.1-4.3-3.2
						c-0.5,7.2-1,14.4-1.6,21.6c0.7,0.3,1.3,0.5,1.9,0.5c1.2,0,2-0.7,2.7-2c0.7-1.5,1.3-3.1,2.1-4.6c0.5-1.1,1.6-1.7,2.7-1.7
						c0.5,0,1.1,0.1,1.5,0.4s0.8,1.1,0.6,1.6c-0.7,3.1-1.7,6.3-2.5,9.4c-0.2,0.8-0.7,1.1-1.4,1.1c-0.1,0-0.2,0-0.3,0
						c-3.4-0.3-6.8-0.6-10.2-0.8c-3.5-0.2-7-0.4-10.5-0.6c-0.1,0-0.1,0-0.2,0c-0.2,0-0.3,0-0.5,0c-0.6,0-1.1-0.1-1.2-0.9
						c-0.1-1.8-0.2-2.7,1.2-3.3c1.5-0.5,1.9-1.6,1.9-3.1c0.5-12.5,1.1-25.1,1.7-37.6c0.1-1.2-0.4-1.8-1.4-2.3
						c-1.4-0.6-2.1-2.8-1.2-4C211.9,164.5,212.5,164.4,212.9,164.4 M212.9,163.4c-0.2,0-1.5,0-2,0.9c-0.5,0.8-0.7,2-0.3,3.1
						c0.3,1.1,1.1,2,2,2.4c0.7,0.3,0.8,0.6,0.8,1.3c-0.7,14.4-1.3,26.3-1.7,37.6c-0.1,1.3-0.4,1.8-1.3,2.2c-2.1,0.8-2,2.4-1.9,4.2
						v0.1c0.1,0.7,0.4,1.9,2.2,1.9c0.1,0,0.2,0,0.3,0c0.1,0,0.2,0,0.2,0h0.1c1.8,0.1,3.6,0.2,5.3,0.3c1.7,0.1,3.5,0.2,5.2,0.3
						c2.8,0.2,5.6,0.4,8.3,0.6l1.8,0.1c0.1,0,0.3,0,0.4,0c1.5,0,2.1-1,2.3-1.8c0.3-1.3,0.7-2.5,1-3.8c0.5-1.8,1-3.7,1.5-5.6
						c0.2-0.9-0.3-2.2-1.1-2.6c-0.6-0.4-1.3-0.6-2.1-0.6c-1.5,0-3,0.9-3.6,2.3c-0.4,0.8-0.8,1.6-1.1,2.4c-0.3,0.7-0.6,1.5-1,2.2
						c-0.6,1.3-1.3,1.5-1.8,1.5c-0.3,0-0.5,0-0.9-0.1l1.4-19.9c1,0,1.8,0.1,2,0.2c0.1,0.1,0.2,0.7,0.3,1.3c0,0.3,0.1,0.5,0.1,0.8
						c0,0.1,0,0.2,0,0.3c0,0.2,0,0.3,0.1,0.5c0.4,2.1,1.7,2.5,3.7,2.5c0.2,0,0.3,0,0.5,0c2.1-0.1,2.2-1.8,2.3-2.5v-0.2
						c0.1-1.1,0.2-2.3,0.3-3.4c0.2-1.8,0.3-3.7,0.5-5.5v-0.5c0.2-1.5,0.3-2.4-0.3-3.1s-1.5-0.8-3.1-0.9h-0.6l0,0h-0.1
						c-0.9,0-1.8,0.7-2.2,1.4c-0.3,0.5-0.4,1-0.5,1.5c-0.1,0.4-0.2,0.8-0.4,1.1c-0.2,0.4-0.6,0.8-0.8,0.8c-0.1,0-0.3,0-0.5,0
						c-0.3,0-0.7,0-1.1-0.1l0.3-3.9l0.9-12.2c0.2,0,0.3,0,0.4,0c1.3,0,1.7,0.3,2.4,2.1c0.3,0.7,0.5,1.5,0.8,2.3
						c0.8,2.8,2,3.8,4.7,3.8c0.2,0,0.3,0,0.5,0c0.8,0,1.4-0.3,1.8-0.7c0.4-0.5,0.5-1.1,0.4-1.8c-0.1-1.1-0.3-2.3-0.4-3.4
						c-0.2-1.6-0.4-3.2-0.6-4.8c-0.3-2.3-0.8-2.7-3.1-2.9c-5-0.4-9.5-0.7-13.6-1C218.9,163.6,216,163.5,212.9,163.4L212.9,163.4
						L212.9,163.4z"/>
				</g>
				<g id="XMLID_2987_">
					<path id="XMLID_21_" class="st4" d="M200.1,216.1c-3,0-6,0-9-0.1H188h-0.6c-0.1,0-0.3,0-0.3,0c-0.2,0-0.4,0-0.6,0s-0.4,0-0.6,0
						c-0.9,0-1.4-0.4-1.7-1.3c-0.6-1.9,0-3.3,1.6-4.3c0.4-0.2,0.7-0.8,0.7-1.2c0-5.5,0-11.1-0.1-16.5l-0.1-8.3c0-2.5,0-5-0.1-7.4
						c0-2.2,0-4.3,0-6.5v-2.4c-0.2,0-0.4,0-0.6,0c-1.1,0-1.3,0.1-1.7,1.9c-0.2,0.9-0.3,1.9-0.4,2.8c-0.1,0.4-0.1,0.9-0.2,1.3
						c-0.2,1.7-1.8,2.9-3.6,2.9c-0.7,0-1.3-0.2-1.8-0.6s-0.8-1.2-0.8-1.8c0-3,0.2-6,0.3-9.1c0.1-1.3,0.8-2.1,2.2-2.1
						c1.5,0,3.1,0,4.6-0.1c3.3-0.1,6.7-0.1,10-0.1h0.7c2.2,0,4.5,0.1,6.7,0.1c1.7,0.1,3.4,0.1,5.1,0.1c1,0,2.2,0.3,2.3,2.1
						c0,1.4,0.1,2.8,0.2,4.3s0.1,2.9,0.2,4.4c0,0.8,0,1.6-0.5,2.1s-1.2,0.5-1.8,0.5h-0.3c-2.5-0.1-3-0.5-3.5-3
						c-0.3-1.5-0.7-3.1-1.3-4.8c-0.3-0.9-0.8-1-1.3-1c-0.1,0-0.2,0-0.3,0v0.7c0,0.8,0,1.7,0,2.6c-0.2,10.5-0.3,21-0.5,31.5
						c0,1.5-0.1,3-0.1,4.5v0.8c0,1.1,0.4,1.9,1.3,2.4c0.7,0.4,1.1,1.5,1.3,2.5c0.1,0.5,0.2,1.9-0.5,2.5
						C201.6,215.9,201,216.1,200.1,216.1L200.1,216.1z"/>
					<path id="XMLID_18_" d="M194.4,163.8c0.2,0,0.5,0,0.7,0c3.9,0,7.8,0.2,11.7,0.3c1.2,0,1.8,0.4,1.8,1.6c0.1,2.9,0.3,5.7,0.4,8.6
						c0,1.7-0.3,2.1-1.8,2.1c-0.1,0-0.2,0-0.3,0c-2.3-0.1-2.5-0.3-3-2.6c-0.3-1.6-0.8-3.3-1.3-4.9c-0.3-0.8-0.8-1.4-1.7-1.4
						c-0.2,0-0.5,0-0.8,0.1c0,1.2,0,2.4,0,3.7c-0.2,10.5-0.3,21-0.5,31.5c0,1.8-0.1,3.5-0.2,5.3c0,1.3,0.4,2.2,1.6,2.8
						c1,0.5,1.4,3.4,0.6,4.2c-0.3,0.3-0.9,0.3-1.4,0.3l0,0c-4,0-8-0.1-12-0.1h-0.1c-0.2,0-0.4,0-0.6,0c-0.1,0-0.2,0-0.3,0h-0.1
						c-0.4,0-0.8,0.1-1.2,0.1c-0.5,0-1-0.2-1.2-0.9c-0.5-1.7,0-2.9,1.4-3.8c0.5-0.3,1-1,1-1.6c0-6.7,0-13.4-0.1-20.1
						c0-4-0.1-8.1-0.1-12.1c0-3.1,0-6.2,0-9.4c-0.4,0-0.8-0.1-1.1-0.1c-1.5,0-1.8,0.5-2.2,2.3c-0.3,1.4-0.4,2.8-0.6,4.1
						c-0.2,1.5-1.7,2.5-3.1,2.5c-0.5,0-1.1-0.1-1.5-0.5c-0.3-0.2-0.6-0.9-0.6-1.4c0-3,0.2-6.1,0.3-9.1c0-1,0.6-1.6,1.7-1.6
						C184.6,163.9,189.5,163.8,194.4,163.8 M194.4,162.8c-3.4,0-6.8,0.1-10,0.1c-1.5,0-3.1,0-4.6,0.1c-1.6,0-2.6,1-2.7,2.6
						c-0.1,3.1-0.2,6.1-0.3,9.1c0,0.7,0.3,1.7,1,2.2c0.6,0.4,1.3,0.7,2.1,0.7c2,0,3.8-1.5,4.1-3.4c0.1-0.4,0.1-0.9,0.2-1.3
						c0.1-0.9,0.2-1.9,0.4-2.8c0.3-1.5,0.3-1.5,1.2-1.5h0.1v2c0,2.2,0,4.3,0,6.5c0,2.5,0,4.9,0.1,7.4c0,1.6,0,3.1,0,4.7v3.6
						c0,5.4,0.1,11,0.1,16.6c0,0.2-0.3,0.6-0.5,0.7c-1.8,1.2-2.4,2.9-1.8,4.9c0.2,0.7,0.8,1.6,2.1,1.6c0.2,0,0.5,0,0.7,0
						s0.3,0,0.5,0s0.3,0,0.4,0h0.3h0.3h0.1h3c3,0,6,0.1,9,0.1c1,0,1.7-0.2,2.1-0.6c0.9-0.8,0.8-2.3,0.7-2.9
						c-0.1-0.5-0.4-2.3-1.5-2.9c-0.8-0.4-1.1-1-1.1-1.9v-0.7c0.1-1.5,0.1-3,0.1-4.5c0.2-10.5,0.4-21,0.5-31.5c0-0.9,0-1.7,0-2.6
						c0-0.1,0-0.2,0-0.2c0.2,0,0.4,0.2,0.6,0.7c0.5,1.7,0.9,3.3,1.2,4.8c0.5,2.7,1.2,3.3,3.9,3.4c0.1,0,0.2,0,0.3,0
						c0.8,0,1.6-0.1,2.2-0.7s0.7-1.5,0.6-2.4c0-1.5-0.1-2.9-0.2-4.4c-0.1-1.4-0.1-2.8-0.2-4.2c0-1.7-1-2.6-2.8-2.6
						c-1.7,0-3.4-0.1-5.1-0.1c-2.2-0.1-4.5-0.1-6.7-0.1L194.4,162.8L194.4,162.8z"/>
				</g>
				<g id="XMLID_2986_">
					<path id="XMLID_16_" class="st4" d="M158.6,217.7c-0.3,0-0.7,0-1-0.1c-0.7-0.2-1.3-1.3-1.4-2c-0.5-2-0.9-4-1.4-6
						c-0.4-1.9-0.9-3.8-1.3-5.6c-0.2-0.7-0.1-1.2,0.2-1.6c0.3-0.4,0.7-0.6,1.4-0.7h0.2c0.5-0.1,1-0.1,1.5-0.1c1.3,0,2.2,0.6,2.7,1.7
						c0.8,1.7,1.8,3.8,2.9,5.7c0.6,1,1.5,1.9,2.2,2.6c0.4,0.4,0.8,0.5,1.3,0.5c0.3,0,0.6-0.1,0.9-0.3c0.8-0.4,1.1-1.2,0.9-2
						c-0.3-1.4-0.7-2.9-1.5-4.1c-1.8-2.7-3.6-5.4-5.5-8c-0.9-1.3-1.8-2.6-2.7-3.9l-0.4-0.6c-2.1-3.1-4.4-6.3-5.7-10
						c-1.6-4.4-1.9-8.5-0.8-12.3c1.2-4.4,4.5-7.2,8.6-7.5c0.2,0,0.4,0,0.6,0c2.1,0,4,0.7,5.8,1.6c0.1,0.1,0.2,0.1,0.4,0.2l0,0
						c0.1-0.2,0.3-0.3,0.4-0.5c0.8-1.3,1.5-1.8,2.7-1.8c0.4,0,0.8,0,1.2,0.1l0.5,0.1c0.6,0.1,1,0.7,1.1,1.2
						c0.9,4.2,1.8,8.4,2.6,12.1c0.1,0.6,0,1-0.2,1.3c-0.2,0.2-0.5,0.5-1.2,0.6c-0.4,0-0.8,0-1.3,0.1c-0.3,0-1,0-1.1,0
						c-1.1,0-2-0.6-2.7-1.7l-0.1-0.1c-1-1.8-2-3.6-3.2-5.3c-0.6-0.9-1.5-1.8-2.4-2.4c-0.2-0.1-0.6-0.2-0.9-0.2s-0.6,0.1-0.7,0.1
						c-0.3,0.2-0.6,1-0.5,1.4c0.3,1.4,0.8,2.6,1.4,3.6c1.2,1.9,2.4,3.7,3.6,5.5c0.9,1.4,1.9,2.8,2.8,4.2l0.8,1.3
						c1.6,2.5,3.3,5.1,4.7,7.8c2.8,5.3,3.5,10.8,2.1,16.6c-1.1,4.4-4.9,7.7-9,7.8h-0.2c-1.4,0-2.8-0.4-4.1-0.9l-0.7-0.2
						c-0.3-0.1-0.6-0.2-0.8-0.2c-0.1,0-0.3,0-0.6,0.6C160.5,217.2,159.7,217.7,158.6,217.7z"/>
					<path id="XMLID_13_" d="M169.6,163.4c0.5,0,1,0.1,1.7,0.2c0.3,0,0.6,0.5,0.7,0.8c0.9,4,1.7,8,2.6,12.1c0.2,0.7-0.2,1.2-0.9,1.2
						c-0.7,0.1-1.4,0.1-2.2,0.1c-0.1,0-0.1,0-0.2,0c-1,0-1.7-0.5-2.2-1.5c-1-1.8-2.1-3.7-3.3-5.4c-0.7-1-1.6-1.9-2.5-2.5
						c-0.3-0.2-0.8-0.3-1.2-0.3c-0.4,0-0.7,0.1-1,0.2c-0.5,0.3-0.8,1.4-0.7,2c0.3,1.3,0.7,2.6,1.4,3.8c2,3.3,4.3,6.5,6.4,9.7
						c1.9,3,3.9,6,5.6,9.1c2.8,5.1,3.5,10.6,2.1,16.3c-1,4.2-4.6,7.3-8.5,7.5c-0.1,0-0.1,0-0.2,0c-1.4,0-2.9-0.5-4.3-1
						c-0.5-0.1-0.9-0.3-1.2-0.3c-0.4,0-0.8,0.2-1.1,0.9c-0.4,0.7-1.1,1-1.8,1c-0.3,0-0.6,0-0.9-0.1c-0.5-0.1-0.9-1-1.1-1.6
						c-1-3.9-1.8-7.8-2.7-11.7c-0.3-1.1,0.1-1.6,1.1-1.7c0.6-0.1,1.1-0.1,1.7-0.1l0,0c1,0,1.8,0.4,2.2,1.4c0.9,2,1.8,3.9,2.9,5.8
						c0.6,1,1.4,1.9,2.3,2.7c0.5,0.4,1,0.7,1.6,0.7c0.4,0,0.8-0.1,1.2-0.3c1-0.5,1.4-1.5,1.2-2.5c-0.4-1.5-0.7-3-1.5-4.2
						c-2.6-4.1-5.5-8-8.2-12c-2.3-3.3-4.6-6.6-6-10.5s-1.9-7.9-0.8-12c1.1-4.2,4.3-6.9,8.2-7.1c0.2,0,0.4,0,0.5,0
						c2,0,3.8,0.7,5.6,1.5c0.2,0.1,0.4,0.2,0.7,0.3c0.3-0.3,0.5-0.5,0.7-0.8C168.1,163.7,168.7,163.4,169.6,163.4 M169.6,162.4
						c-1.3,0-2.2,0.6-3.1,2l-0.1,0.1l0,0c-1.8-0.8-3.8-1.6-6-1.6c-0.2,0-0.4,0-0.6,0c-4.4,0.3-7.9,3.3-9.1,7.9
						c-1.1,3.9-0.8,8.1,0.8,12.6c1.3,3.7,3.6,7,5.7,10.1l0.4,0.6c0.9,1.3,1.8,2.6,2.8,4c1.8,2.6,3.7,5.3,5.4,8
						c0.7,1.1,1.1,2.5,1.4,3.9c0.1,0.6-0.1,1.1-0.7,1.4c-0.2,0.1-0.5,0.2-0.7,0.2c-0.3,0-0.6-0.1-0.9-0.4c-0.7-0.7-1.6-1.6-2.1-2.5
						c-1.1-1.9-2.1-3.9-2.9-5.7c-0.6-1.3-1.7-2-3.2-2c-0.5,0-1.1,0.1-1.5,0.1H155c-0.8,0.1-1.4,0.4-1.8,0.9s-0.4,1.2-0.2,2.1
						c0.5,1.9,0.9,3.8,1.3,5.6c0.5,2,0.9,4,1.4,6c0.2,0.7,0.8,2,1.8,2.3c0.4,0.1,0.8,0.2,1.2,0.2c1.3,0,2.3-0.6,2.7-1.6
						c0.1-0.2,0.2-0.3,0.2-0.3c0.1,0,0.4,0.1,0.6,0.2c0.1,0,0.2,0.1,0.3,0.1l0.4,0.1c1.4,0.4,2.8,0.9,4.2,0.9c0.1,0,0.1,0,0.2,0
						c4.3-0.1,8.3-3.6,9.4-8.2c1.5-5.9,0.7-11.6-2.2-17c-1.5-2.7-3.1-5.3-4.8-7.8l-0.9-1.3c-0.9-1.4-1.9-2.9-2.8-4.2
						c-1.2-1.8-2.4-3.6-3.6-5.5c-0.6-0.9-1-2.1-1.3-3.5c0-0.2,0.1-0.8,0.3-0.9l0,0c0,0,0.2,0,0.4,0c0.3,0,0.6,0.1,0.7,0.1
						c0.8,0.6,1.7,1.3,2.3,2.2c1.2,1.7,2.2,3.5,3.2,5.2l0.1,0.1c0.7,1.3,1.8,2,3.1,2c0.1,0,0.1,0,0.2,0c0.3,0,0.6,0,0.9,0
						c0.4,0,0.9,0,1.3-0.1c0.8-0.1,1.3-0.4,1.5-0.8c0.2-0.3,0.5-0.8,0.3-1.7c-0.8-3.7-1.7-7.9-2.6-12.1c-0.1-0.6-0.8-1.5-1.6-1.6
						c-0.2,0-0.4,0-0.5-0.1C170.4,162.4,170,162.4,169.6,162.4L169.6,162.4z"/>
				</g>
			</g>
			<g id="XMLID_2974_">
				<path id="XMLID_2976_" class="st3" d="M71.6,237.2c-5.2-22.8-10.3-45.4-15.4-68.2c89.7-20,179.2-20,268.9,0
					c-5.2,22.8-10.3,45.4-15.4,68.2c-39.2-8.8-78.9-13.2-119-13.2C150.5,223.9,110.9,228.4,71.6,237.2z M98.2,200.9
					c0.1,0,0.2,0,0.3-0.1c0.1,0.2,0.2,0.5,0.3,0.7c0.9,2.2,1.8,4.5,2.6,6.7c1.8,4.6,3.5,9.3,5.2,13.9c0.4,1,0.9,1.4,2,1.2
					c1.4-0.3,2.9-0.5,4.4-0.7c0.9-0.1,1.4-0.5,1.5-1.5c0.1-3.1,0.2-6.1,0.3-9.2c0.5-11.8,1-23.6,1.4-35.5c0-1.2,0.3-2.1,1.2-2.8
					c0.8-0.7,1-3.3,0.3-4c-0.2-0.2-0.6-0.4-0.9-0.4c-2.9,0.4-5.8,0.8-8.6,1.3c-0.3,0.1-0.8,0.3-0.9,0.6c-0.4,0.9,0.6,2.9,1.6,3.3
					c1.7,0.7,2.1,1.2,2,3.1c-0.2,4.9-0.3,9.7-0.5,14.6c-0.1,1.8,0,3.7,0,5.5c-0.1,0-0.3,0-0.4,0c-0.9-2.3-1.7-4.6-2.6-6.9
					c-1.5-4.1-3.1-8.2-4.7-12.3c-0.3-0.7-0.8-1.5,0-2.1c1.6-1.1,1.3-2.5,0.9-3.9c-0.2-0.8-0.5-1.1-1.3-1c-4.8,0.9-9.6,1.8-14.4,2.7
					c-0.3,0.1-0.9,0.5-0.9,0.8c0.2,1.4,0,3,1.6,3.9c0.6,0.3,1.2,0.9,1.5,1.5c1.8,4.2,4.1,8.3,3.4,13.1c-0.2,1.1,0,2.2,0,3.4
					c0,1.6,0,3.3,0,4.9c-1.5-3-2.8-6.1-4.1-9.1c-1.5-3.6-3.1-7.1-4.6-10.7c-0.3-0.7-0.5-1.8-0.2-2.2c1-1.3,0.5-2.5,0.2-3.8
					c-0.2-0.8-0.7-1-1.4-0.9c-4.6,1-9.3,2.1-13.9,3.1c-0.7,0.2-1,0.6-0.8,1.3c0.2,0.6,0.2,1.2,0.5,1.7c0.3,0.6,0.8,1.2,1.3,1.5
					c1.1,0.4,1.7,1.1,2.1,2.1c5,11.3,10,22.6,15.1,33.9c1,2.2,1.9,4.5,2.9,6.7c0.4,1,1.1,1.4,2.2,1.1c1.3-0.4,2.7-0.7,4.1-0.9
					c1.3-0.2,1.6-0.8,1.6-1.9c-0.1-6.3-0.2-12.5-0.3-18.8C98.2,203.4,98.2,202.1,98.2,200.9z M264.1,196.3c0.5-0.1,0.7-0.1,0.9-0.2
					c3.5-0.7,6.7-1.9,8.7-4.9c5.6-8.6,1.6-19.9-9.6-22.1c-6.4-1.2-13-1.7-19.5-2.5c-2-0.2-2.5,0.2-2.6,2.2c0,0.6,0.2,1.7,0.5,1.8
					c2.1,0.8,2,2.4,1.8,4.1c-0.4,3.4-0.7,6.8-1.1,10.1c-0.9,8.6-1.8,17.2-2.7,25.8c-0.1,1.3-0.7,2.2-2,2.7c-0.4,0.1-0.7,0.6-0.8,1
					c-0.2,0.7-0.2,1.5-0.2,2.3s0.4,1.2,1.2,1.3c4.5,0.5,9,1,13.5,1.5c0.4,0,0.9-0.1,1.2-0.3c0.8-0.7,0.9-3.3,0.1-4
					c-0.9-0.8-0.9-1.7-0.7-2.7c0.5-3.4,0.9-6.9,1.4-10.3c0.2-1.7,0.5-3.4,0.7-5.1c0.4,0,0.6,0,0.9,0c3.2,0.3,4.3,1.6,3.9,4.8
					c-0.5,3.7-1,7.4-1.6,11.2c-0.3,1.8-0.5,3.7,0.2,5.4c0.4,1,0.9,1.9,2.1,2.1c3,0.5,6.1,1,9.1,1.4c0.3,0,0.8-0.1,1.1-0.3
					c0.7-0.8,0.6-3,0.1-3.9c-0.3-0.6-0.6-1.4-0.5-2.1c0.3-2.5,0.9-5,1.2-7.6c0.8-5.1-1.2-8.9-5.8-11.2
					C265.1,196.8,264.8,196.6,264.1,196.3z M299.2,200c-0.1,0-0.1,0-0.2,0c-0.2-1-0.5-2.1-0.7-3.1c-1.8-7.4-3.6-14.8-5.4-22.2
					c-0.1-0.3-0.5-0.8-0.8-0.8c-3-0.6-6-1.2-8.9-1.7c-0.4-0.1-1,0-1.3,0.3c-1.1,1-1,3.4,0.2,4.3c1.1,0.8,1.4,1.8,1.2,3.1
					c-2.3,12.4-4.5,24.8-6.8,37.1c-0.1,0.5-0.6,1.3-1.1,1.4c-2,0.4-2.2,1.9-2.2,3.4c0,0.4,0.5,1.1,0.8,1.1c2.8,0.6,5.6,1.1,8.4,1.6
					c0.3,0.1,0.8,0,1-0.2c1-1.1,0.7-3.5-0.5-4.4c-1-0.7-1.3-1.6-1-2.8c0.3-1.5,0.6-3.1,0.9-4.6c1.1-5.4,2.1-10.9,3.2-16.6
					c0.2,0.6,0.3,0.9,0.4,1.2c0.7,3,1.5,6,2.1,9c1.4,6.6,2.8,13.1,4.2,19.7c0.1,0.4,0.3,1,0.6,1.1c1.6,0.5,3.2,0.8,4.9,1.1
					c0.1-0.5,0.3-0.8,0.3-1.2c3.3-14.1,6.6-28.2,9.9-42.3c0.3-1.3,0.9-2,2.3-2.2c1.2-0.1,2.3-2.8,1.5-3.8c-0.1-0.2-0.4-0.4-0.7-0.4
					c-3.1-0.7-6.2-1.4-9.3-2.1c-0.3-0.1-0.8,0-1,0.2c-0.8,0.9-0.7,3.3,0.3,3.9c1.6,1,1.8,2.3,1.3,4
					C301.5,189.4,300.4,194.7,299.2,200z M136.3,170.8c3.1-0.7,3.8-0.4,5.3,2.2c0.3,0.6,0.6,1.2,1,1.8c1.2,2.5,1.6,2.7,4.3,2.4
					c1.5-0.1,1.8-0.5,1.3-1.9c-0.8-2.5-1.6-5-2.3-7.5c-0.6-1.8-0.8-1.9-2.7-1.8c-3.7,0.4-7.5,0.7-11.2,1.1s-7.5,0.9-11.2,1.4
					c-0.4,0.1-1,0.4-1,0.7c-0.5,1.7,0.4,3.2,2.1,3.7c1,0.3,1.5,0.7,1.6,1.8c0.1,1.4,0.4,2.9,0.6,4.3c1.4,10.9,2.8,21.7,4.3,32.6
					c0.2,1.8,0.3,3.2-1.6,4.2c-1,0.6-0.8,1.7-0.3,3.3c0.3,0.9,1.1,0.6,1.7,0.5c7-0.8,14-1.6,21-2.3c0.9-0.1,1.3-0.5,1.4-1.4
					c0.3-3.2,0.6-6.4,0.8-9.6c0-0.5-0.5-1.3-0.9-1.5c-1.7-0.7-3.5,0.3-4,2.1c-0.4,1.4-0.7,2.8-1,4.2c-0.7,2.8-1.4,3.2-4.4,3.1
					c-0.8-7.2-1.5-14.4-2.3-21.6c3.6-0.8,3.7-0.8,4.8,2.4c0.7,1.9,0.9,2,3,1.8c1.6-0.2,1.8-0.4,1.6-2c-0.3-3-0.5-6.1-0.8-9.1
					c-0.3-3.5,0-3-3.5-2.8c-0.4,0-1,0.6-1.2,1.1c-0.3,0.9-0.2,1.9-0.5,2.8c-0.2,0.6-0.6,1.3-1.2,1.5c-0.9,0.3-1.8,0.3-2.9,0.4
					C137.5,182.7,136.9,176.8,136.3,170.8z M227.7,169.3c2.9-0.3,3.7,0.2,4.7,2.7c0.3,0.8,0.5,1.6,0.8,2.4c0.7,2.5,1.6,3.1,4.2,3.1
					c1,0,1.4-0.5,1.2-1.4c-0.4-2.7-0.7-5.5-1-8.2c-0.2-1.8-0.4-1.9-2.2-2.1c-4.5-0.4-9.1-0.7-13.6-1c-2.9-0.2-5.9-0.3-8.9-0.4
					c-0.4,0-1.1,0.1-1.3,0.4c-0.8,1.3-0.1,3.4,1.2,4c1.1,0.5,1.5,1.1,1.4,2.3c-0.6,12.5-1.2,25.1-1.7,37.6c-0.1,1.5-0.5,2.5-1.9,3.1
					c-1.4,0.5-1.3,1.4-1.2,3.3c0.1,1.2,1.2,0.9,1.9,0.9c3.5,0.2,7,0.4,10.5,0.6c3.4,0.2,6.8,0.5,10.2,0.8c0.8,0.1,1.5-0.1,1.7-1
					c0.8-3.1,1.7-6.2,2.5-9.4c0.1-0.5-0.2-1.3-0.6-1.6c-1.5-0.9-3.5-0.3-4.3,1.3c-0.7,1.5-1.4,3.1-2.1,4.6c-1,2-2.4,2.5-4.6,1.6
					c0.5-7.2,1-14.4,1.6-21.6c4.2,0.1,3.8,0.1,4.3,3.2c0,0.2,0.1,0.5,0.1,0.7c0.3,1.4,1,1.7,3.2,1.7c1.3,0,1.3-1,1.3-1.8
					c0.3-3,0.5-6,0.8-9c0.3-3.3,0.5-3.1-3-3.3c-0.4,0-1.1,0.5-1.3,0.9c-0.4,0.8-0.5,1.8-0.9,2.6c-0.3,0.6-0.9,1.2-1.5,1.3
					c-0.9,0.2-1.9-0.1-2.8-0.1C226.9,181.2,227.3,175.3,227.7,169.3z M186.9,167.6c0,3.2,0,6.3,0,9.4c0,4,0.1,8.1,0.1,12.1
					c0,6.7,0.1,13.4,0.1,20.1c0,0.5-0.5,1.3-1,1.6c-1.3,0.9-1.9,2.1-1.4,3.8c0.4,1.3,1.5,0.8,2.4,0.8c0.3,0,0.6,0,1,0
					c4,0,8,0.1,12,0.1c0.5,0,1.1-0.1,1.4-0.3c0.8-0.7,0.4-3.7-0.6-4.2c-1.2-0.6-1.6-1.6-1.6-2.8c0.1-1.8,0.1-3.5,0.2-5.3
					c0.2-10.5,0.4-21,0.5-31.5c0-1.3,0-2.5,0-3.7c1.5-0.4,2.2,0.2,2.5,1.3c0.5,1.6,0.9,3.2,1.3,4.9c0.4,2.2,0.7,2.5,3,2.6
					c1.7,0,2.2-0.3,2.1-2.1c-0.1-2.9-0.3-5.7-0.4-8.6c0-1.3-0.6-1.6-1.8-1.6c-3.9-0.1-7.8-0.3-11.7-0.3c-5.1,0-10.2,0.1-15.3,0.2
					c-1.1,0-1.6,0.6-1.7,1.6c-0.1,3-0.2,6.1-0.3,9.1c0,0.5,0.2,1.1,0.6,1.4c1.7,1.2,4.4,0,4.7-2c0.2-1.4,0.3-2.8,0.6-4.1
					C184.1,167.7,184.4,167.4,186.9,167.6z M166.7,165.7c-0.3-0.1-0.5-0.2-0.7-0.3c-1.9-0.9-3.9-1.6-6.1-1.5c-3.9,0.3-7.1,3-8.2,7.1
					s-0.6,8.1,0.8,12c1.4,3.8,3.7,7.1,6,10.5c2.7,4,5.6,7.9,8.2,12c0.8,1.2,1.2,2.8,1.5,4.2c0.2,1-0.2,2-1.2,2.5
					c-1,0.6-2,0.4-2.8-0.4c-0.9-0.8-1.7-1.7-2.3-2.7c-1.1-1.9-2-3.8-2.9-5.8c-0.5-1-1.2-1.4-2.3-1.4c-0.6,0-1.1,0.1-1.7,0.1
					c-1.1,0.1-1.4,0.6-1.1,1.7c0.9,3.9,1.8,7.8,2.7,11.7c0.1,0.6,0.6,1.5,1.1,1.6c1,0.3,2.2,0.2,2.8-0.9c0.6-1.3,1.3-0.9,2.3-0.6
					c1.5,0.5,3,1,4.5,1c3.9-0.1,7.5-3.2,8.5-7.5c1.4-5.7,0.7-11.1-2.1-16.3c-1.7-3.1-3.7-6.1-5.6-9.1c-2.1-3.3-4.3-6.4-6.4-9.7
					c-0.7-1.1-1.2-2.5-1.4-3.8c-0.1-0.6,0.2-1.7,0.7-2s1.6-0.3,2.2,0.1c1,0.6,1.9,1.5,2.5,2.5c1.2,1.7,2.2,3.6,3.3,5.4
					c0.5,1,1.3,1.5,2.4,1.4c0.7,0,1.4,0,2.2-0.1c0.7-0.1,1.1-0.5,0.9-1.2c-0.8-4-1.7-8.1-2.6-12.1c-0.1-0.3-0.4-0.8-0.7-0.8
					c-1.9-0.2-2.8-0.5-3.9,1.4C167.2,165.2,166.9,165.4,166.7,165.7z"/>
				<path id="XMLID_2975_" class="st3" d="M258,172c0.6,0.1,1.1,0.1,1.5,0.2c2.6,0.4,3.9,1.9,3.6,4.5c-0.5,4.2-1.2,8.5-1.8,12.7
					c0,0.1,0,0.2,0,0.2c-1.2,4.2-2.8,4.4-6,3.5C256.2,186.1,257.1,179.1,258,172z"/>
			</g>
		</g>
	</g>
</g>
</svg>
